  0
SECTION
  2
HEADER
  0
ENDSEC
  0
SECTION
  2
TABLES
  0
TABLE
  2
LAYER
  70
    153
  0
LAYER
  2
dolph02
 70
0
 62
15
  6
CONTINUOUS
  0
ENDTAB
  0
ENDSEC
  0
SECTION
  2
ENTITIES
  0
3DFACE
  8
dolph02
 10
-0.863886
 20
-0.117431
 30
2.290543
 11
-0.940873
 21
0.000000
 31
2.301520
 12
-0.383330
 22
0.000000
 32
2.804176
 13
-0.383330
 23
0.000000
 33
2.804176
 62
0
  0
3DFACE
  8
dolph02
 10
-0.383330
 20
0.000000
 30
2.804176
 11
-0.273266
 21
-0.088110
 31
2.785832
 12
-0.863886
 22
-0.117431
 32
2.290543
 13
-0.863886
 23
-0.117431
 33
2.290543
 62
0
  0
3DFACE
  8
dolph02
 10
-0.273266
 20
-0.088110
 30
2.785832
 11
-0.383330
 21
0.000000
 31
2.804176
 12
0.093616
 22
0.000000
 32
3.035281
 13
0.093616
 23
0.000000
 33
3.035281
 62
0
  0
3DFACE
  8
dolph02
 10
0.093616
 20
0.000000
 30
3.035281
 11
0.141425
 21
-0.051421
 31
2.991373
 12
-0.273266
 22
-0.088110
 32
2.785832
 13
-0.273266
 23
-0.088110
 33
2.785832
 62
0
  0
3DFACE
  8
dolph02
 10
0.141425
 20
-0.051421
 30
2.991373
 11
0.093616
 21
0.000000
 31
3.035281
 12
0.548605
 22
0.000000
 32
3.068358
 13
0.548605
 23
0.000000
 33
3.068358
 62
0
  0
3DFACE
  8
dolph02
 10
0.548605
 20
0.000000
 30
3.068358
 11
0.574316
 21
-0.018344
 31
3.005960
 12
0.141425
 22
-0.051421
 32
2.991373
 13
0.141425
 23
-0.051421
 33
2.991373
 62
0
  0
3DFACE
  8
dolph02
 10
0.574316
 20
-0.018344
 30
3.005960
 11
0.548605
 21
0.000000
 31
3.068358
 12
0.809034
 22
0.000000
 32
2.998594
 13
0.809034
 23
0.000000
 33
2.998594
 62
0
  0
3DFACE
  8
dolph02
 10
0.555973
 20
-0.143141
 30
2.151157
 11
0.548605
 21
0.000000
 31
2.411584
 12
0.702724
 22
0.000000
 32
2.052071
 13
0.702724
 23
0.000000
 33
2.052071
 62
0
  0
3DFACE
  8
dolph02
 10
-0.016449
 20
-0.168707
 30
2.264831
 11
-0.863886
 21
-0.117431
 31
2.290543
 12
-0.273266
 22
-0.088110
 32
2.785832
 13
-0.273266
 23
-0.088110
 33
2.785832
 62
0
  0
3DFACE
  8
dolph02
 10
-0.273266
 20
-0.088110
 30
2.785832
 11
0.200068
 21
-0.088110
 31
2.573070
 12
-0.016449
 22
-0.168707
 32
2.264831
 13
-0.016449
 23
-0.168707
 33
2.264831
 62
0
  0
3DFACE
  8
dolph02
 10
0.200068
 20
-0.088110
 30
2.573070
 11
-0.273266
 21
-0.088110
 31
2.785832
 12
0.141425
 22
-0.051421
 32
2.991373
 13
0.141425
 23
-0.051421
 33
2.991373
 62
0
  0
3DFACE
  8
dolph02
 10
0.141425
 20
-0.051421
 30
2.991373
 11
0.354189
 21
-0.051421
 31
2.741777
 12
0.200068
 22
-0.088110
 32
2.573070
 13
0.200068
 23
-0.088110
 33
2.573070
 62
0
  0
3DFACE
  8
dolph02
 10
0.354189
 20
-0.051421
 30
2.741777
 11
0.141425
 21
-0.051421
 31
2.991373
 12
0.574316
 22
-0.018344
 32
3.005960
 13
0.574316
 23
-0.018344
 33
3.005960
 62
0
  0
3DFACE
  8
dolph02
 10
-3.346441
 20
0.000000
 30
1.198104
 11
-3.432577
 21
-0.110064
 31
1.091194
 12
-3.510258
 22
0.000000
 32
1.042427
 13
-3.510258
 23
0.000000
 33
1.042427
 62
0
  0
3DFACE
  8
dolph02
 10
-3.432577
 20
-0.110064
 30
1.091194
 11
-3.346441
 21
0.000000
 31
1.198104
 12
-3.075267
 22
0.000000
 32
1.403851
 13
-3.075267
 23
0.000000
 33
1.403851
 62
0
  0
3DFACE
  8
dolph02
 10
-3.075267
 20
0.000000
 30
1.403851
 11
-3.137704
 21
-0.201784
 31
1.317002
 12
-3.432577
 22
-0.110064
 32
1.091194
 13
-3.432577
 23
-0.110064
 33
1.091194
 62
0
  0
3DFACE
  8
dolph02
 10
-2.758110
 20
-0.076987
 30
1.587368
 11
-2.682962
 21
0.000000
 31
1.650985
 12
-2.164721
 22
0.000000
 32
1.950269
 13
-2.164721
 23
0.000000
 33
1.950269
 62
0
  0
3DFACE
  8
dolph02
 10
-2.164721
 20
0.000000
 30
1.950269
 11
-2.186688
 21
-0.264183
 31
1.863826
 12
-2.758110
 22
-0.076987
 32
1.587368
 13
-2.758110
 23
-0.076987
 33
1.587368
 62
0
  0
3DFACE
  8
dolph02
 10
-2.746011
 20
-0.201784
 30
1.556795
 11
-2.758110
 21
-0.076987
 31
1.587368
 12
-2.186688
 22
-0.264183
 32
1.863826
 13
-2.186688
 23
-0.264183
 33
1.863826
 62
0
  0
3DFACE
  8
dolph02
 10
-2.186688
 20
-0.264183
 30
1.863826
 11
-2.164721
 21
0.000000
 31
1.950269
 12
-1.525892
 22
0.000000
 32
2.195470
 13
-1.525892
 23
0.000000
 33
2.195470
 62
0
  0
3DFACE
  8
dolph02
 10
-1.525892
 20
0.000000
 30
2.195470
 11
-1.543219
 21
-0.322826
 31
2.119513
 12
-2.186688
 22
-0.264183
 32
1.863826
 13
-2.186688
 23
-0.264183
 33
1.863826
 62
0
  0
3DFACE
  8
dolph02
 10
-1.543219
 20
-0.322826
 30
2.119513
 11
-1.525892
 21
0.000000
 31
2.195470
 12
-0.940873
 22
0.000000
 32
2.301520
 13
-0.940873
 23
0.000000
 33
2.301520
 62
0
  0
3DFACE
  8
dolph02
 10
-0.940873
 20
0.000000
 30
2.301520
 11
-0.863886
 21
-0.117431
 31
2.290543
 12
-1.543219
 22
-0.322826
 32
2.119513
 13
-1.543219
 23
-0.322826
 33
2.119513
 62
0
  0
3DFACE
  8
dolph02
 10
-1.543219
 20
-0.322826
 30
2.119513
 11
-0.863886
 21
-0.117431
 31
2.290543
 12
-0.907939
 22
-0.355903
 32
2.074170
 13
-0.907939
 23
-0.355903
 33
2.074170
 62
0
  0
3DFACE
  8
dolph02
 10
-0.907939
 20
-0.355903
 30
2.074170
 11
-0.863886
 21
-0.117431
 31
2.290543
 12
-0.016449
 22
-0.168707
 32
2.264831
 13
-0.016449
 23
-0.168707
 33
2.264831
 62
0
  0
3DFACE
  8
dolph02
 10
-0.016449
 20
-0.168707
 30
2.264831
 11
-0.067725
 21
-0.385224
 31
2.052071
 12
-0.907939
 22
-0.355903
 32
2.074170
 13
-0.907939
 23
-0.355903
 33
2.074170
 62
0
  0
3DFACE
  8
dolph02
 10
-0.067725
 20
-0.385224
 30
2.052071
 11
-0.016449
 21
-0.168707
 31
2.264831
 12
0.555973
 22
-0.143141
 32
2.151157
 13
0.555973
 23
-0.143141
 33
2.151157
 62
0
  0
3DFACE
  8
dolph02
 10
0.555973
 20
-0.143141
 30
2.151157
 11
0.743023
 21
-0.293504
 31
1.879607
 12
-0.067725
 22
-0.385224
 32
2.052071
 13
-0.067725
 23
-0.385224
 33
2.052071
 62
0
  0
3DFACE
  8
dolph02
 10
0.743023
 20
-0.293504
 30
1.879607
 11
0.555973
 21
-0.143141
 31
2.151157
 12
0.702724
 22
0.000000
 32
2.052071
 13
0.702724
 23
0.000000
 33
2.052071
 62
0
  0
3DFACE
  8
dolph02
 10
1.535584
 20
-0.168707
 30
1.707661
 11
0.743023
 21
-0.293504
 31
1.879607
 12
0.702724
 22
0.000000
 32
2.052071
 13
0.702724
 23
0.000000
 33
2.052071
 62
0
  0
3DFACE
  8
dolph02
 10
0.702724
 20
0.000000
 30
2.052071
 11
1.531420
 21
0.000000
 31
1.768922
 12
1.535584
 22
-0.168707
 32
1.707661
 13
1.535584
 23
-0.168707
 33
1.707661
 62
0
  0
3DFACE
  8
dolph02
 10
1.535584
 20
-0.168707
 30
1.707661
 11
1.531420
 21
0.000000
 31
1.768922
 12
2.124038
 22
0.000000
 32
1.583036
 13
2.124038
 23
0.000000
 33
1.583036
 62
0
  0
3DFACE
  8
dolph02
 10
2.124038
 20
0.000000
 30
1.583036
 11
2.114522
 21
-0.212762
 31
1.413597
 12
1.535584
 22
-0.168707
 32
1.707661
 13
1.535584
 23
-0.168707
 33
1.707661
 62
0
  0
3DFACE
  8
dolph02
 10
2.114522
 20
-0.212762
 30
1.413597
 11
2.124038
 21
0.000000
 31
1.583036
 12
2.479676
 22
0.000000
 32
1.458655
 13
2.479676
 23
0.000000
 33
1.458655
 62
0
  0
3DFACE
  8
dolph02
 10
2.479676
 20
0.000000
 30
1.458655
 11
2.492853
 21
-0.172462
 31
1.230714
 12
2.114522
 22
-0.212762
 32
1.413597
 13
2.114522
 23
-0.212762
 33
1.413597
 62
0
  0
3DFACE
  8
dolph02
 10
2.492853
 20
-0.172462
 30
1.230714
 11
2.479676
 21
0.000000
 31
1.458655
 12
2.818886
 22
0.000000
 32
1.325071
 13
2.818886
 23
0.000000
 33
1.325071
 62
0
  0
3DFACE
  8
dolph02
 10
2.818886
 20
0.000000
 30
1.325071
 11
2.845411
 21
-0.113676
 31
1.113487
 12
2.492853
 22
-0.172462
 32
1.230714
 13
2.492853
 23
-0.172462
 33
1.230714
 62
0
  0
3DFACE
  8
dolph02
 10
2.845411
 20
-0.113676
 30
1.113487
 11
2.818886
 21
0.000000
 31
1.325071
 12
3.087764
 22
0.000000
 32
1.196584
 13
3.087764
 23
0.000000
 33
1.196584
 62
0
  0
3DFACE
  8
dolph02
 10
3.087764
 20
0.000000
 30
1.196584
 11
3.117374
 21
-0.139385
 31
1.066242
 12
2.845411
 22
-0.113676
 32
1.113487
 13
2.845411
 23
-0.113676
 33
1.113487
 62
0
  0
3DFACE
  8
dolph02
 10
3.117374
 20
-0.139385
 30
1.066242
 11
3.087764
 21
0.000000
 31
1.196584
 12
3.267614
 22
0.000000
 32
0.984461
 13
3.267614
 23
0.000000
 33
0.984461
 62
0
  0
3DFACE
  8
dolph02
 10
3.267614
 20
0.000000
 30
0.984461
 11
3.182287
 21
-0.106453
 31
0.970882
 12
3.117374
 22
-0.139385
 32
1.066242
 13
3.117374
 23
-0.139385
 33
1.066242
 62
0
  0
3DFACE
  8
dolph02
 10
-2.790169
 20
-0.322826
 30
1.468428
 11
-3.137704
 21
-0.201784
 31
1.317002
 12
-2.746011
 22
-0.201784
 32
1.556795
 13
-2.746011
 23
-0.201784
 33
1.556795
 62
0
  0
3DFACE
  8
dolph02
 10
-2.557632
 20
-0.473334
 30
1.430699
 11
-2.790169
 21
-0.322826
 31
1.468428
 12
-2.746011
 22
-0.201784
 32
1.556795
 13
-2.746011
 23
-0.201784
 33
1.556795
 62
0
  0
3DFACE
  8
dolph02
 10
-2.111991
 20
-0.432891
 30
1.655139
 11
-2.557632
 21
-0.473334
 31
1.430699
 12
-2.746011
 22
-0.201784
 32
1.556795
 13
-2.746011
 23
-0.201784
 33
1.556795
 62
0
  0
3DFACE
  8
dolph02
 10
-2.746011
 20
-0.201784
 30
1.556795
 11
-2.186688
 21
-0.264183
 31
1.863826
 12
-2.111991
 22
-0.432891
 32
1.655139
 13
-2.111991
 23
-0.432891
 33
1.655139
 62
0
  0
3DFACE
  8
dolph02
 10
-2.111991
 20
-0.432891
 30
1.655139
 11
-2.186688
 21
-0.264183
 31
1.863826
 12
-1.543219
 22
-0.322826
 32
2.119513
 13
-1.543219
 23
-0.322826
 33
2.119513
 62
0
  0
3DFACE
  8
dolph02
 10
-1.543219
 20
-0.322826
 30
2.119513
 11
-1.558352
 21
-0.462213
 31
1.848429
 12
-2.111991
 22
-0.432891
 32
1.655139
 13
-2.111991
 23
-0.432891
 33
1.655139
 62
0
  0
3DFACE
  8
dolph02
 10
-1.558352
 20
-0.462213
 30
1.848429
 11
-1.543219
 21
-0.322826
 31
2.119513
 12
-0.907939
 22
-0.355903
 32
2.074170
 13
-0.907939
 23
-0.355903
 33
2.074170
 62
0
  0
3DFACE
  8
dolph02
 10
-0.907939
 20
-0.355903
 30
2.074170
 11
-0.907939
 21
-0.517244
 31
1.817353
 12
-1.558352
 22
-0.462213
 32
1.848429
 13
-1.558352
 23
-0.462213
 33
1.848429
 62
0
  0
3DFACE
  8
dolph02
 10
-0.907939
 20
-0.517244
 30
1.817353
 11
-0.907939
 21
-0.355903
 31
2.074170
 12
-0.067725
 22
-0.385224
 32
2.052071
 13
-0.067725
 23
-0.385224
 33
2.052071
 62
0
  0
3DFACE
  8
dolph02
 10
-0.067725
 20
-0.385224
 30
2.052071
 11
-0.177790
 21
-0.491678
 31
1.799010
 12
-0.907939
 22
-0.517244
 32
1.817353
 13
-0.907939
 23
-0.517244
 33
1.817353
 62
0
  0
3DFACE
  8
dolph02
 10
-0.177790
 20
-0.491678
 30
1.799010
 11
-0.067725
 21
-0.385224
 31
2.052071
 12
0.743023
 22
-0.293504
 32
1.879607
 13
0.743023
 23
-0.293504
 33
1.879607
 62
0
  0
3DFACE
  8
dolph02
 10
0.743023
 20
-0.293504
 30
1.879607
 11
0.695358
 21
-0.410935
 31
1.685189
 12
-0.177790
 22
-0.491678
 32
1.799010
 13
-0.177790
 23
-0.491678
 33
1.799010
 62
0
  0
3DFACE
  8
dolph02
 10
0.695358
 20
-0.410935
 30
1.685189
 11
0.743023
 21
-0.293504
 31
1.879607
 12
1.535584
 22
-0.168707
 32
1.707661
 13
1.535584
 23
-0.168707
 33
1.707661
 62
0
  0
3DFACE
  8
dolph02
 10
1.535584
 20
-0.168707
 30
1.707661
 11
1.530652
 21
-0.264183
 31
1.597945
 12
0.695358
 22
-0.410935
 32
1.685189
 13
0.695358
 23
-0.410935
 33
1.685189
 62
0
  0
3DFACE
  8
dolph02
 10
1.530652
 20
-0.264183
 30
1.597945
 11
1.535584
 21
-0.168707
 31
1.707661
 12
2.114522
 22
-0.212762
 32
1.413597
 13
2.114522
 23
-0.212762
 33
1.413597
 62
0
  0
3DFACE
  8
dolph02
 10
-2.557632
 20
-0.473334
 30
1.430699
 11
-2.741250
 21
-0.528367
 31
1.258260
 12
-2.885680
 22
-0.458601
 32
1.292291
 13
-2.885680
 23
-0.458601
 33
1.292291
 62
0
  0
3DFACE
  8
dolph02
 10
-2.885680
 20
-0.458601
 30
1.292291
 11
-2.790169
 21
-0.322826
 31
1.468428
 12
-2.557632
 22
-0.473334
 32
1.430699
 13
-2.557632
 23
-0.473334
 33
1.430699
 62
0
  0
3DFACE
  8
dolph02
 10
-2.790169
 20
-0.322826
 30
1.468428
 11
-2.885680
 21
-0.458601
 31
1.292291
 12
-3.003870
 22
-0.396202
 32
1.199061
 13
-3.003870
 23
-0.396202
 33
1.199061
 62
0
  0
3DFACE
  8
dolph02
 10
-3.003870
 20
-0.396202
 30
1.199061
 11
-3.137704
 21
-0.201784
 31
1.317002
 12
-2.790169
 22
-0.322826
 32
1.468428
 13
-2.790169
 23
-0.322826
 33
1.468428
 62
0
  0
3DFACE
  8
dolph02
 10
-3.137704
 20
-0.201784
 30
1.317002
 11
-3.003870
 21
-0.396202
 31
1.199061
 12
-3.258283
 22
-0.300872
 32
0.973515
 13
-3.258283
 23
-0.300872
 33
0.973515
 62
0
  0
3DFACE
  8
dolph02
 10
-3.258283
 20
-0.300872
 30
0.973515
 11
-3.432577
 21
-0.110064
 31
1.091194
 12
-3.137704
 22
-0.201784
 32
1.317002
 13
-3.137704
 23
-0.201784
 33
1.317002
 62
0
  0
3DFACE
  8
dolph02
 10
-3.432577
 20
-0.110064
 30
1.091194
 11
-3.258283
 21
-0.300872
 31
0.973515
 12
-3.479981
 22
-0.146753
 32
0.785834
 13
-3.479981
 23
-0.146753
 33
0.785834
 62
0
  0
3DFACE
  8
dolph02
 10
-2.741250
 20
-0.528367
 30
1.258260
 11
-2.720284
 21
-0.517244
 31
1.112884
 12
-2.872304
 22
-0.447623
 32
1.188129
 13
-2.872304
 23
-0.447623
 33
1.188129
 62
0
  0
3DFACE
  8
dolph02
 10
-2.872304
 20
-0.447623
 30
1.188129
 11
-2.885680
 21
-0.458601
 31
1.292291
 12
-2.741250
 22
-0.528367
 32
1.258260
 13
-2.741250
 23
-0.528367
 33
1.258260
 62
0
  0
3DFACE
  8
dolph02
 10
-2.885680
 20
-0.458601
 30
1.292291
 11
-2.872304
 21
-0.447623
 31
1.188129
 12
-3.003870
 22
-0.396202
 32
1.199061
 13
-3.003870
 23
-0.396202
 33
1.199061
 62
0
  0
3DFACE
  8
dolph02
 10
-3.258283
 20
-0.300872
 30
0.973515
 11
-3.514718
 21
-0.201784
 31
0.678276
 12
-3.479981
 22
-0.146753
 32
0.785834
 13
-3.479981
 23
-0.146753
 33
0.785834
 62
0
  0
3DFACE
  8
dolph02
 10
-3.427515
 20
-0.216517
 30
0.531164
 11
-3.839069
 21
-0.106453
 31
0.230262
 12
-3.909453
 22
-0.106453
 32
0.269302
 13
-3.909453
 23
-0.106453
 33
0.269302
 62
0
  0
3DFACE
  8
dolph02
 10
-3.909453
 20
-0.106453
 30
0.269302
 11
-3.514718
 21
-0.201784
 31
0.678276
 12
-3.427515
 22
-0.216517
 32
0.531164
 13
-3.427515
 23
-0.216517
 33
0.531164
 62
0
  0
3DFACE
  8
dolph02
 10
-3.983537
 20
-0.058643
 30
0.220237
 11
-4.000000
 21
0.000000
 31
0.243634
 12
-3.622325
 22
0.000000
 32
0.668810
 13
-3.622325
 23
0.000000
 33
0.668810
 62
0
  0
3DFACE
  8
dolph02
 10
-3.622325
 20
0.000000
 30
0.668810
 11
-3.579279
 21
-0.073376
 31
0.698424
 12
-3.983537
 22
-0.058643
 32
0.220237
 13
-3.983537
 23
-0.058643
 33
0.220237
 62
0
  0
3DFACE
  8
dolph02
 10
-3.432577
 20
-0.110064
 30
1.091194
 11
-3.479981
 21
-0.146753
 31
0.785834
 12
-3.579279
 22
-0.073376
 32
0.698424
 13
-3.579279
 23
-0.073376
 33
0.698424
 62
0
  0
3DFACE
  8
dolph02
 10
-3.579279
 20
-0.073376
 30
0.698424
 11
-3.510258
 21
0.000000
 31
1.042427
 12
-3.432577
 22
-0.110064
 32
1.091194
 13
-3.432577
 23
-0.110064
 33
1.091194
 62
0
  0
3DFACE
  8
dolph02
 10
-3.510258
 20
0.000000
 30
1.042427
 11
-3.579279
 21
-0.073376
 31
0.698424
 12
-3.622325
 22
0.000000
 32
0.668810
 13
-3.622325
 23
0.000000
 33
0.668810
 62
0
  0
3DFACE
  8
dolph02
 10
-3.031353
 20
-0.440257
 30
1.002633
 11
-3.003870
 21
-0.396202
 31
1.199061
 12
-2.915851
 22
-0.443868
 32
1.107103
 13
-2.915851
 23
-0.443868
 33
1.107103
 62
0
  0
3DFACE
  8
dolph02
 10
-2.915851
 20
-0.443868
 30
1.107103
 11
-3.020020
 21
-0.443868
 31
0.961109
 12
-3.031353
 22
-0.440257
 32
1.002633
 13
-3.031353
 23
-0.440257
 33
1.002633
 62
0
  0
3DFACE
  8
dolph02
 10
-3.219236
 20
-0.381614
 30
0.911425
 11
-3.258283
 21
-0.300872
 31
0.973515
 12
-3.003870
 22
-0.396202
 32
1.199061
 13
-3.003870
 23
-0.396202
 33
1.199061
 62
0
  0
3DFACE
  8
dolph02
 10
-3.003870
 20
-0.396202
 30
1.199061
 11
-3.031353
 21
-0.440257
 31
1.002633
 12
-3.219236
 22
-0.381614
 32
0.911425
 13
-3.219236
 23
-0.381614
 33
0.911425
 62
0
  0
3DFACE
  8
dolph02
 10
-3.219236
 20
-0.381614
 30
0.911425
 11
-3.031353
 21
-0.440257
 31
1.002633
 12
-3.020020
 22
-0.443868
 32
0.961109
 13
-3.020020
 23
-0.443868
 33
0.961109
 62
0
  0
3DFACE
  8
dolph02
 10
-3.020020
 20
-0.443868
 30
0.961109
 11
-3.178110
 21
-0.374248
 31
0.830755
 12
-3.219236
 22
-0.381614
 32
0.911425
 13
-3.219236
 23
-0.381614
 33
0.911425
 62
0
  0
3DFACE
  8
dolph02
 10
-3.514718
 20
-0.201784
 30
0.678276
 11
-3.219236
 21
-0.381614
 31
0.911425
 12
-3.178110
 22
-0.374248
 32
0.830755
 13
-3.178110
 23
-0.374248
 33
0.830755
 62
0
  0
3DFACE
  8
dolph02
 10
-3.178110
 20
-0.374248
 30
0.830755
 11
-3.427515
 21
-0.216517
 31
0.531164
 12
-3.514718
 22
-0.201784
 32
0.678276
 13
-3.514718
 23
-0.201784
 33
0.678276
 62
0
  0
3DFACE
  8
dolph02
 10
-3.839069
 20
-0.106453
 30
0.230262
 11
-3.427515
 21
-0.216517
 31
0.531164
 12
-3.377228
 22
-0.234861
 32
0.471764
 13
-3.377228
 23
-0.234861
 33
0.471764
 62
0
  0
3DFACE
  8
dolph02
 10
-3.377228
 20
-0.234861
 30
0.471764
 11
-3.748872
 21
-0.121042
 31
0.208129
 12
-3.839069
 22
-0.106453
 32
0.230262
 13
-3.839069
 23
-0.106453
 33
0.230262
 62
0
  0
3DFACE
  8
dolph02
 10
-3.377228
 20
-0.234861
 30
0.471764
 11
-3.427515
 21
-0.216517
 31
0.531164
 12
-3.178110
 22
-0.374248
 32
0.830755
 13
-3.178110
 23
-0.374248
 33
0.830755
 62
0
  0
3DFACE
  8
dolph02
 10
-3.178110
 20
-0.374248
 30
0.830755
 11
-3.096178
 21
-0.374248
 31
0.665530
 12
-3.377228
 22
-0.234861
 32
0.471764
 13
-3.377228
 23
-0.234861
 33
0.471764
 62
0
  0
3DFACE
  8
dolph02
 10
-3.178110
 20
-0.374248
 30
0.830755
 11
-3.020020
 21
-0.443868
 31
0.961109
 12
-2.949983
 22
-0.498900
 32
0.874268
 13
-2.949983
 23
-0.498900
 33
0.874268
 62
0
  0
3DFACE
  8
dolph02
 10
-3.096178
 20
-0.374248
 30
0.665530
 11
-2.949983
 21
-0.498900
 31
0.874268
 12
-2.630337
 22
-0.502656
 32
0.733640
 13
-2.630337
 23
-0.502656
 33
0.733640
 62
0
  0
3DFACE
  8
dolph02
 10
-2.630337
 20
-0.502656
 30
0.733640
 11
-3.066291
 21
-0.396202
 31
0.582169
 12
-3.096178
 22
-0.374248
 32
0.665530
 13
-3.096178
 23
-0.374248
 33
0.665530
 62
0
  0
3DFACE
  8
dolph02
 10
-3.579279
 20
-0.073376
 30
0.698424
 11
-3.479981
 21
-0.146753
 31
0.785834
 12
-3.514718
 22
-0.201784
 32
0.678276
 13
-3.514718
 23
-0.201784
 33
0.678276
 62
0
  0
3DFACE
  8
dolph02
 10
-2.870473
 20
-0.502656
 30
0.945059
 11
-3.020020
 21
-0.443868
 31
0.961109
 12
-2.915851
 22
-0.443868
 32
1.107103
 13
-2.915851
 23
-0.443868
 33
1.107103
 62
0
  0
3DFACE
  8
dolph02
 10
-2.870473
 20
-0.502656
 30
0.945059
 11
-2.915851
 21
-0.443868
 31
1.107103
 12
-2.830175
 22
-0.498900
 32
1.074184
 13
-2.830175
 23
-0.498900
 33
1.074184
 62
0
  0
3DFACE
  8
dolph02
 10
-2.870473
 20
-0.502656
 30
0.945059
 11
-2.830175
 21
-0.498900
 31
1.074184
 12
-2.720284
 22
-0.517244
 32
1.112884
 13
-2.720284
 23
-0.517244
 33
1.112884
 62
0
  0
3DFACE
  8
dolph02
 10
-2.870473
 20
-0.502656
 30
0.945059
 11
-2.720284
 21
-0.517244
 31
1.112884
 12
-2.645588
 22
-0.557688
 32
0.904197
 13
-2.645588
 23
-0.557688
 33
0.904197
 62
0
  0
3DFACE
  8
dolph02
 10
-2.870473
 20
-0.502656
 30
0.945059
 11
-2.645588
 21
-0.557688
 31
0.904197
 12
-2.949983
 22
-0.498900
 32
0.874268
 13
-2.949983
 23
-0.498900
 33
0.874268
 62
0
  0
3DFACE
  8
dolph02
 10
-2.870473
 20
-0.502656
 30
0.945059
 11
-2.949983
 21
-0.498900
 31
0.874268
 12
-3.020020
 22
-0.443868
 32
0.961109
 13
-3.020020
 23
-0.443868
 33
0.961109
 62
0
  0
3DFACE
  8
dolph02
 10
-3.361425
 20
-0.264183
 30
0.396822
 11
-3.697377
 21
-0.157729
 31
0.163267
 12
-3.748872
 22
-0.121042
 32
0.208129
 13
-3.748872
 23
-0.121042
 33
0.208129
 62
0
  0
3DFACE
  8
dolph02
 10
-3.748872
 20
-0.121042
 30
0.208129
 11
-3.377228
 21
-0.234861
 31
0.471764
 12
-3.361425
 22
-0.264183
 32
0.396822
 13
-3.361425
 23
-0.264183
 33
0.396822
 62
0
  0
3DFACE
  8
dolph02
 10
-3.066291
 20
-0.396202
 30
0.582169
 11
-3.361425
 21
-0.264183
 31
0.396822
 12
-3.377228
 22
-0.234861
 32
0.471764
 13
-3.377228
 23
-0.234861
 33
0.471764
 62
0
  0
3DFACE
  8
dolph02
 10
-3.377228
 20
-0.234861
 30
0.471764
 11
-3.096178
 21
-0.374248
 31
0.665530
 12
-3.066291
 22
-0.396202
 32
0.582169
 13
-3.066291
 23
-0.396202
 33
0.582169
 62
0
  0
3DFACE
  8
dolph02
 10
-3.033529
 20
-0.245839
 30
0.266523
 11
-3.066291
 21
-0.396202
 31
0.582169
 12
-2.808140
 22
-0.458601
 32
0.674787
 13
-2.808140
 23
-0.458601
 33
0.674787
 62
0
  0
3DFACE
  8
dolph02
 10
-2.808140
 20
-0.458601
 30
0.674787
 11
-2.630337
 21
-0.502656
 31
0.733640
 12
-3.033529
 22
-0.245839
 32
0.266523
 13
-3.033529
 23
-0.245839
 33
0.266523
 62
0
  0
3DFACE
  8
dolph02
 10
-2.510428
 20
-0.322826
 30
0.359155
 11
-3.033529
 21
-0.245839
 31
0.266523
 12
-2.630337
 22
-0.502656
 32
0.733640
 13
-2.630337
 23
-0.502656
 33
0.733640
 62
0
  0
3DFACE
  8
dolph02
 10
-3.066291
 20
-0.396202
 30
0.582169
 11
-3.033529
 21
-0.245839
 31
0.266523
 12
-3.286785
 22
-0.146753
 32
0.276408
 13
-3.286785
 23
-0.146753
 33
0.276408
 62
0
  0
3DFACE
  8
dolph02
 10
-3.286785
 20
-0.146753
 30
0.276408
 11
-3.358341
 21
-0.249449
 31
0.344967
 12
-3.066291
 22
-0.396202
 32
0.582169
 13
-3.066291
 23
-0.396202
 33
0.582169
 62
0
  0
3DFACE
  8
dolph02
 10
-2.510428
 20
-0.322826
 30
0.359155
 11
-2.630337
 21
-0.502656
 31
0.733640
 12
-2.075380
 22
-0.623697
 32
0.632305
 13
-2.075380
 23
-0.623697
 33
0.632305
 62
0
  0
3DFACE
  8
dolph02
 10
-2.075380
 20
-0.623697
 30
0.632305
 11
-2.061754
 21
-0.506266
 31
0.487539
 12
-2.510428
 22
-0.322826
 32
0.359155
 13
-2.510428
 23
-0.322826
 33
0.359155
 62
0
  0
3DFACE
  8
dolph02
 10
-2.075380
 20
-0.623697
 30
0.632305
 11
-2.630337
 21
-0.502656
 31
0.733640
 12
-2.582183
 22
-0.583398
 32
0.913712
 13
-2.582183
 23
-0.583398
 33
0.913712
 62
0
  0
3DFACE
  8
dolph02
 10
-2.582183
 20
-0.583398
 30
0.913712
 11
-1.995461
 21
-0.711807
 31
1.063815
 12
-2.075380
 22
-0.623697
 32
0.632305
 13
-2.075380
 23
-0.623697
 33
0.632305
 62
0
  0
3DFACE
  8
dolph02
 10
-2.630337
 20
-0.502656
 30
0.733640
 11
-2.645588
 21
-0.557688
 31
0.904197
 12
-2.582183
 22
-0.583398
 32
0.913712
 13
-2.582183
 23
-0.583398
 33
0.913712
 62
0
  0
3DFACE
  8
dolph02
 10
-2.582183
 20
-0.583398
 30
0.913712
 11
-2.645588
 21
-0.557688
 31
0.904197
 12
-2.720284
 22
-0.517244
 32
1.112884
 13
-2.720284
 23
-0.517244
 33
1.112884
 62
0
  0
3DFACE
  8
dolph02
 10
-2.720284
 20
-0.517244
 30
1.112884
 11
-2.487793
 21
-0.579643
 31
1.163570
 12
-2.582183
 22
-0.583398
 32
0.913712
 13
-2.582183
 23
-0.583398
 33
0.913712
 62
0
  0
3DFACE
  8
dolph02
 10
-2.720284
 20
-0.517244
 30
1.112884
 11
-2.741250
 21
-0.528367
 31
1.258260
 12
-2.557632
 22
-0.473334
 32
1.430699
 13
-2.557632
 23
-0.473334
 33
1.430699
 62
0
  0
3DFACE
  8
dolph02
 10
-2.557632
 20
-0.473334
 30
1.430699
 11
-2.457620
 21
-0.528367
 31
1.348760
 12
-2.720284
 22
-0.517244
 32
1.112884
 13
-2.720284
 23
-0.517244
 33
1.112884
 62
0
  0
3DFACE
  8
dolph02
 10
-2.487793
 20
-0.579643
 30
1.163570
 11
-2.720284
 21
-0.517244
 31
1.112884
 12
-2.457620
 22
-0.528367
 32
1.348760
 13
-2.457620
 23
-0.528367
 33
1.348760
 62
0
  0
3DFACE
  8
dolph02
 10
-2.582183
 20
-0.583398
 30
0.913712
 11
-2.487793
 21
-0.579643
 31
1.163570
 12
-2.014711
 22
-0.616332
 32
1.407761
 13
-2.014711
 23
-0.616332
 33
1.407761
 62
0
  0
3DFACE
  8
dolph02
 10
-2.014711
 20
-0.616332
 30
1.407761
 11
-1.995461
 21
-0.711807
 31
1.063815
 12
-2.582183
 22
-0.583398
 32
0.913712
 13
-2.582183
 23
-0.583398
 33
0.913712
 62
0
  0
3DFACE
  8
dolph02
 10
-1.995461
 20
-0.711807
 30
1.063815
 11
-2.014711
 21
-0.616332
 31
1.407761
 12
-1.549743
 22
-0.667752
 32
1.508992
 13
-1.549743
 23
-0.667752
 33
1.508992
 62
0
  0
3DFACE
  8
dolph02
 10
-1.549743
 20
-0.667752
 30
1.508992
 11
-1.407953
 21
-0.737373
 31
1.132689
 12
-1.995461
 22
-0.711807
 32
1.063815
 13
-1.995461
 23
-0.711807
 33
1.063815
 62
0
  0
3DFACE
  8
dolph02
 10
-1.407953
 20
-0.737373
 30
1.132689
 11
-1.549743
 21
-0.667752
 31
1.508992
 12
-0.841930
 22
-0.693463
 32
1.358752
 13
-0.841930
 23
-0.693463
 33
1.358752
 62
0
  0
3DFACE
  8
dolph02
 10
-0.841930
 20
-0.693463
 30
1.358752
 11
-0.768554
 21
-0.737373
 31
1.087203
 12
-1.407953
 22
-0.737373
 32
1.132689
 13
-1.407953
 23
-0.737373
 33
1.132689
 62
0
  0
3DFACE
  8
dolph02
 10
-0.768554
 20
-0.737373
 30
1.087203
 11
-0.841930
 21
-0.693463
 31
1.358752
 12
-0.148467
 22
-0.667752
 32
1.432127
 13
-0.148467
 23
-0.667752
 33
1.432127
 62
0
  0
3DFACE
  8
dolph02
 10
-0.148467
 20
-0.667752
 30
1.432127
 11
-0.119145
 21
-0.708052
 31
1.090813
 12
-0.768554
 22
-0.737373
 32
1.087203
 13
-0.768554
 23
-0.737373
 33
1.087203
 62
0
  0
3DFACE
  8
dolph02
 10
-0.119145
 20
-0.708052
 30
1.090813
 11
-0.148467
 21
-0.667752
 31
1.432127
 12
0.658671
 22
-0.634675
 32
1.344019
 13
0.658671
 23
-0.634675
 33
1.344019
 62
0
  0
3DFACE
  8
dolph02
 10
0.658671
 20
-0.634675
 30
1.344019
 11
0.651303
 21
-0.645653
 31
0.955183
 12
-0.119145
 22
-0.708052
 32
1.090813
 13
-0.119145
 23
-0.708052
 33
1.090813
 62
0
  0
3DFACE
  8
dolph02
 10
0.651303
 20
-0.645653
 30
0.955183
 11
0.658671
 21
-0.634675
 31
1.344019
 12
1.508366
 22
-0.476945
 32
1.290917
 13
1.508366
 23
-0.476945
 33
1.290917
 62
0
  0
3DFACE
  8
dolph02
 10
1.508366
 20
-0.476945
 30
1.290917
 11
1.489652
 21
-0.410935
 31
0.936933
 12
0.651303
 22
-0.645653
 32
0.955183
 13
0.651303
 23
-0.645653
 33
0.955183
 62
0
  0
3DFACE
  8
dolph02
 10
1.489652
 20
-0.410935
 30
0.936933
 11
1.508366
 21
-0.476945
 31
1.290917
 12
2.063890
 22
-0.337559
 32
1.192844
 13
2.063890
 23
-0.337559
 33
1.192844
 62
0
  0
3DFACE
  8
dolph02
 10
2.063890
 20
-0.337559
 30
1.192844
 11
2.033510
 21
-0.315460
 31
0.838347
 12
1.489652
 22
-0.410935
 32
0.936933
 13
1.489652
 23
-0.410935
 33
0.936933
 62
0
  0
3DFACE
  8
dolph02
 10
2.033510
 20
-0.315460
 30
0.838347
 11
2.063890
 21
-0.337559
 31
1.192844
 12
2.458041
 22
-0.201784
 32
1.053202
 13
2.458041
 23
-0.201784
 33
1.053202
 62
0
  0
3DFACE
  8
dolph02
 10
2.458041
 20
-0.201784
 30
1.053202
 11
2.433396
 21
-0.205396
 31
0.833844
 12
2.033510
 22
-0.315460
 32
0.838347
 13
2.033510
 23
-0.315460
 33
0.838347
 62
0
  0
3DFACE
  8
dolph02
 10
2.433396
 20
-0.205396
 30
0.833844
 11
2.458041
 21
-0.201784
 31
1.053202
 12
2.746918
 22
-0.143141
 32
0.986763
 13
2.746918
 23
-0.143141
 33
0.986763
 62
0
  0
3DFACE
  8
dolph02
 10
2.746918
 20
-0.143141
 30
0.986763
 11
2.696008
 21
-0.154119
 31
0.808293
 12
2.433396
 22
-0.205396
 32
0.833844
 13
2.433396
 23
-0.205396
 33
0.833844
 62
0
  0
3DFACE
  8
dolph02
 10
-2.014711
 20
-0.616332
 30
1.407761
 11
-2.487793
 21
-0.579643
 31
1.163570
 12
-2.457620
 22
-0.528367
 32
1.348760
 13
-2.457620
 23
-0.528367
 33
1.348760
 62
0
  0
3DFACE
  8
dolph02
 10
-2.014711
 20
-0.616332
 30
1.407761
 11
-2.457620
 21
-0.528367
 31
1.348760
 12
-2.111991
 22
-0.432891
 32
1.655139
 13
-2.111991
 23
-0.432891
 33
1.655139
 62
0
  0
3DFACE
  8
dolph02
 10
-2.111991
 20
-0.432891
 30
1.655139
 11
-2.457620
 21
-0.528367
 31
1.348760
 12
-2.557632
 22
-0.473334
 32
1.430699
 13
-2.557632
 23
-0.473334
 33
1.430699
 62
0
  0
3DFACE
  8
dolph02
 10
-2.014711
 20
-0.616332
 30
1.407761
 11
-2.111991
 21
-0.432891
 31
1.655139
 12
-1.558352
 22
-0.462213
 32
1.848429
 13
-1.558352
 23
-0.462213
 33
1.848429
 62
0
  0
3DFACE
  8
dolph02
 10
-1.558352
 20
-0.462213
 30
1.848429
 11
-1.549743
 21
-0.667752
 31
1.508992
 12
-2.014711
 22
-0.616332
 32
1.407761
 13
-2.014711
 23
-0.616332
 33
1.407761
 62
0
  0
3DFACE
  8
dolph02
 10
-1.549743
 20
-0.667752
 30
1.508992
 11
-1.558352
 21
-0.462213
 31
1.848429
 12
-0.907939
 22
-0.517244
 32
1.817353
 13
-0.907939
 23
-0.517244
 33
1.817353
 62
0
  0
3DFACE
  8
dolph02
 10
-0.907939
 20
-0.517244
 30
1.817353
 11
-0.841930
 21
-0.693463
 31
1.358752
 12
-1.549743
 22
-0.667752
 32
1.508992
 13
-1.549743
 23
-0.667752
 33
1.508992
 62
0
  0
3DFACE
  8
dolph02
 10
-0.841930
 20
-0.693463
 30
1.358752
 11
-0.907939
 21
-0.517244
 31
1.817353
 12
-0.177790
 22
-0.491678
 32
1.799010
 13
-0.177790
 23
-0.491678
 33
1.799010
 62
0
  0
3DFACE
  8
dolph02
 10
-0.177790
 20
-0.491678
 30
1.799010
 11
-0.148467
 21
-0.667752
 31
1.432127
 12
-0.841930
 22
-0.693463
 32
1.358752
 13
-0.841930
 23
-0.693463
 33
1.358752
 62
0
  0
3DFACE
  8
dolph02
 10
-0.148467
 20
-0.667752
 30
1.432127
 11
-0.177790
 21
-0.491678
 31
1.799010
 12
0.695358
 22
-0.410935
 32
1.685189
 13
0.695358
 23
-0.410935
 33
1.685189
 62
0
  0
3DFACE
  8
dolph02
 10
0.695358
 20
-0.410935
 30
1.685189
 11
0.658671
 21
-0.634675
 31
1.344019
 12
-0.148467
 22
-0.667752
 32
1.432127
 13
-0.148467
 23
-0.667752
 33
1.432127
 62
0
  0
3DFACE
  8
dolph02
 10
0.658671
 20
-0.634675
 30
1.344019
 11
0.695358
 21
-0.410935
 31
1.685189
 12
1.530652
 22
-0.264183
 32
1.597945
 13
1.530652
 23
-0.264183
 33
1.597945
 62
0
  0
3DFACE
  8
dolph02
 10
1.530652
 20
-0.264183
 30
1.597945
 11
1.508366
 21
-0.476945
 31
1.290917
 12
0.658671
 22
-0.634675
 32
1.344019
 13
0.658671
 23
-0.634675
 33
1.344019
 62
0
  0
3DFACE
  8
dolph02
 10
1.508366
 20
-0.476945
 30
1.290917
 11
1.530652
 21
-0.264183
 31
1.597945
 12
2.114522
 22
-0.212762
 32
1.413597
 13
2.114522
 23
-0.212762
 33
1.413597
 62
0
  0
3DFACE
  8
dolph02
 10
2.114522
 20
-0.212762
 30
1.413597
 11
2.063890
 21
-0.337559
 31
1.192844
 12
1.508366
 22
-0.476945
 32
1.290917
 13
1.508366
 23
-0.476945
 33
1.290917
 62
0
  0
3DFACE
  8
dolph02
 10
2.063890
 20
-0.337559
 30
1.192844
 11
2.114522
 21
-0.212762
 31
1.413597
 12
2.492853
 22
-0.172462
 32
1.230714
 13
2.492853
 23
-0.172462
 33
1.230714
 62
0
  0
3DFACE
  8
dolph02
 10
2.492853
 20
-0.172462
 30
1.230714
 11
2.458041
 21
-0.201784
 31
1.053202
 12
2.063890
 22
-0.337559
 32
1.192844
 13
2.063890
 23
-0.337559
 33
1.192844
 62
0
  0
3DFACE
  8
dolph02
 10
2.458041
 20
-0.201784
 30
1.053202
 11
2.492853
 21
-0.172462
 31
1.230714
 12
2.845411
 22
-0.113676
 32
1.113487
 13
2.845411
 23
-0.113676
 33
1.113487
 62
0
  0
3DFACE
  8
dolph02
 10
2.845411
 20
-0.113676
 30
1.113487
 11
2.746918
 21
-0.143141
 31
0.986763
 12
2.458041
 22
-0.201784
 32
1.053202
 13
2.458041
 23
-0.201784
 33
1.053202
 62
0
  0
3DFACE
  8
dolph02
 10
2.746918
 20
-0.143141
 30
0.986763
 11
2.845411
 21
-0.113676
 31
1.113487
 12
3.117374
 22
-0.139385
 32
1.066242
 13
3.117374
 23
-0.139385
 33
1.066242
 62
0
  0
3DFACE
  8
dolph02
 10
3.117374
 20
-0.139385
 30
1.066242
 11
3.094381
 21
-0.264183
 31
0.956690
 12
2.746918
 22
-0.143141
 32
0.986763
 13
2.746918
 23
-0.143141
 33
0.986763
 62
0
  0
3DFACE
  8
dolph02
 10
3.094381
 20
-0.264183
 30
0.956690
 11
3.117374
 21
-0.139385
 31
1.066242
 12
3.182287
 22
-0.106453
 32
0.970882
 13
3.182287
 23
-0.106453
 33
0.970882
 62
0
  0
3DFACE
  8
dolph02
 10
-2.075380
 20
-0.623697
 30
0.632305
 11
-1.995461
 21
-0.711807
 31
1.063815
 12
-1.407953
 22
-0.737373
 32
1.132689
 13
-1.407953
 23
-0.737373
 33
1.132689
 62
0
  0
3DFACE
  8
dolph02
 10
-1.407953
 20
-0.737373
 30
1.132689
 11
-1.509323
 21
-0.594376
 31
0.666291
 12
-2.075380
 22
-0.623697
 32
0.632305
 13
-2.075380
 23
-0.623697
 33
0.632305
 62
0
  0
3DFACE
  8
dolph02
 10
-1.509323
 20
-0.594376
 30
0.666291
 11
-1.407953
 21
-0.737373
 31
1.132689
 12
-0.768554
 22
-0.737373
 32
1.087203
 13
-0.768554
 23
-0.737373
 33
1.087203
 62
0
  0
3DFACE
  8
dolph02
 10
-0.768554
 20
-0.737373
 30
1.087203
 11
-0.746455
 21
-0.542955
 31
0.595525
 12
-1.509323
 22
-0.594376
 32
0.666291
 13
-1.509323
 23
-0.594376
 33
0.666291
 62
0
  0
3DFACE
  8
dolph02
 10
-0.746455
 20
-0.542955
 30
0.595525
 11
-0.768554
 21
-0.737373
 31
1.087203
 12
-0.119145
 22
-0.708052
 32
1.090813
 13
-0.119145
 23
-0.708052
 33
1.090813
 62
0
  0
3DFACE
  8
dolph02
 10
-0.119145
 20
-0.708052
 30
1.090813
 11
-0.199889
 21
-0.550321
 31
0.624990
 12
-0.746455
 22
-0.542955
 32
0.595525
 13
-0.746455
 23
-0.542955
 33
0.595525
 62
0
  0
3DFACE
  8
dolph02
 10
-0.199889
 20
-0.550321
 30
0.624990
 11
-0.119145
 21
-0.708052
 31
1.090813
 12
0.651303
 22
-0.645653
 32
0.955183
 13
0.651303
 23
-0.645653
 33
0.955183
 62
0
  0
3DFACE
  8
dolph02
 10
0.651303
 20
-0.645653
 30
0.955183
 11
0.497185
 21
-0.447623
 31
0.588302
 12
-0.199889
 22
-0.550321
 32
0.624990
 13
-0.199889
 23
-0.550321
 33
0.624990
 62
0
  0
3DFACE
  8
dolph02
 10
0.497185
 20
-0.447623
 30
0.588302
 11
0.651303
 21
-0.645653
 31
0.955183
 12
1.489652
 22
-0.410935
 32
0.936933
 13
1.489652
 23
-0.410935
 33
0.936933
 62
0
  0
3DFACE
  8
dolph02
 10
1.489652
 20
-0.410935
 30
0.936933
 11
1.440729
 21
-0.249449
 31
0.633347
 12
0.497185
 22
-0.447623
 32
0.588302
 13
0.497185
 23
-0.447623
 33
0.588302
 62
0
  0
3DFACE
  8
dolph02
 10
1.440729
 20
-0.249449
 30
0.633347
 11
1.489652
 21
-0.410935
 31
0.936933
 12
2.033510
 22
-0.315460
 32
0.838347
 13
2.033510
 23
-0.315460
 33
0.838347
 62
0
  0
3DFACE
  8
dolph02
 10
2.033510
 20
-0.315460
 30
0.838347
 11
2.057514
 21
-0.139385
 31
0.580160
 12
1.440729
 22
-0.249449
 32
0.633347
 13
1.440729
 23
-0.249449
 33
0.633347
 62
0
  0
3DFACE
  8
dolph02
 10
2.057514
 20
-0.139385
 30
0.580160
 11
2.033510
 21
-0.315460
 31
0.838347
 12
2.433396
 22
-0.205396
 32
0.833844
 13
2.433396
 23
-0.205396
 33
0.833844
 62
0
  0
3DFACE
  8
dolph02
 10
2.433396
 20
-0.205396
 30
0.833844
 11
2.411182
 21
-0.102698
 31
0.649631
 12
2.057514
 22
-0.139385
 32
0.580160
 13
2.057514
 23
-0.139385
 33
0.580160
 62
0
  0
3DFACE
  8
dolph02
 10
2.411182
 20
-0.102698
 30
0.649631
 11
2.433396
 21
-0.205396
 31
0.833844
 12
2.696008
 22
-0.154119
 32
0.808293
 13
2.696008
 23
-0.154119
 33
0.808293
 62
0
  0
3DFACE
  8
dolph02
 10
2.696008
 20
-0.154119
 30
0.808293
 11
2.848660
 21
-0.080742
 31
0.667260
 12
2.411182
 22
-0.102698
 32
0.649631
 13
2.411182
 23
-0.102698
 33
0.649631
 62
0
  0
3DFACE
  8
dolph02
 10
2.848660
 20
-0.080742
 30
0.667260
 11
2.696008
 21
-0.154119
 31
0.808293
 12
3.051574
 22
-0.172462
 32
0.687838
 13
3.051574
 23
-0.172462
 33
0.687838
 62
0
  0
3DFACE
  8
dolph02
 10
-2.061754
 20
-0.506266
 30
0.487539
 11
-2.075380
 21
-0.623697
 31
0.632305
 12
-1.699679
 22
-1.063954
 32
0.441479
 13
-1.699679
 23
-1.063954
 33
0.441479
 62
0
  0
3DFACE
  8
dolph02
 10
-1.699679
 20
-1.063954
 30
0.441479
 11
-1.713958
 21
-1.030877
 31
0.415565
 12
-2.061754
 22
-0.506266
 32
0.487539
 13
-2.061754
 23
-0.506266
 33
0.487539
 62
0
  0
3DFACE
  8
dolph02
 10
-1.699679
 20
-1.063954
 30
0.441479
 11
-2.075380
 21
-0.623697
 31
0.632305
 12
-1.509323
 22
-0.594376
 32
0.666291
 13
-1.509323
 23
-0.594376
 33
0.666291
 62
0
  0
3DFACE
  8
dolph02
 10
-1.509323
 20
-0.594376
 30
0.666291
 11
-1.368188
 21
-0.931935
 31
0.530276
 12
-1.699679
 22
-1.063954
 32
0.441479
 13
-1.699679
 23
-1.063954
 33
0.441479
 62
0
  0
3DFACE
  8
dolph02
 10
-1.699679
 20
-1.063954
 30
0.441479
 11
-1.368188
 21
-0.931935
 31
0.530276
 12
-1.046417
 22
-1.115375
 32
0.366792
 13
-1.046417
 23
-1.115375
 33
0.366792
 62
0
  0
3DFACE
  8
dolph02
 10
-1.046417
 20
-1.115375
 30
0.366792
 11
-1.254445
 21
-1.166652
 31
0.351507
 12
-1.699679
 22
-1.063954
 32
0.441479
 13
-1.699679
 23
-1.063954
 33
0.441479
 62
0
  0
3DFACE
  8
dolph02
 10
-1.543904
 20
-1.155674
 30
0.391692
 11
-1.699679
 21
-1.063954
 31
0.441479
 12
-1.254445
 22
-1.166652
 32
0.351507
 13
-1.254445
 23
-1.166652
 33
0.351507
 62
0
  0
3DFACE
  8
dolph02
 10
-1.509323
 20
-0.594376
 30
0.666291
 11
-0.746455
 21
-0.542955
 31
0.595525
 12
-0.797876
 22
0.000000
 32
0.404862
 13
-0.797876
 23
0.000000
 33
0.404862
 62
0
  0
3DFACE
  8
dolph02
 10
-0.797876
 20
0.000000
 30
0.404862
 11
-1.491598
 21
0.000000
 31
0.436539
 12
-1.509323
 22
-0.594376
 32
0.666291
 13
-1.509323
 23
-0.594376
 33
0.666291
 62
0
  0
3DFACE
  8
dolph02
 10
0.464252
 20
0.000000
 30
0.430429
 11
0.497185
 21
-0.447623
 31
0.588302
 12
1.440729
 22
-0.249449
 32
0.633347
 13
1.440729
 23
-0.249449
 33
0.633347
 62
0
  0
3DFACE
  8
dolph02
 10
1.440729
 20
-0.249449
 30
0.633347
 11
1.513324
 21
0.000000
 31
0.591898
 12
0.464252
 22
0.000000
 32
0.430429
 13
0.464252
 23
0.000000
 33
0.430429
 62
0
  0
3DFACE
  8
dolph02
 10
2.387870
 20
0.000000
 30
0.589101
 11
2.411182
 21
-0.102698
 31
0.649631
 12
2.848660
 22
-0.080742
 32
0.667260
 13
2.848660
 23
-0.080742
 33
0.667260
 62
0
  0
3DFACE
  8
dolph02
 10
2.848660
 20
-0.080742
 30
0.667260
 11
2.867586
 21
0.000000
 31
0.643766
 12
2.387870
 22
0.000000
 32
0.589101
 13
2.387870
 23
0.000000
 33
0.589101
 62
0
  0
3DFACE
  8
dolph02
 10
-2.447683
 20
0.000000
 30
0.317127
 11
-2.510428
 21
-0.322826
 31
0.359155
 12
-2.061754
 22
-0.506266
 32
0.487539
 13
-2.061754
 23
-0.506266
 33
0.487539
 62
0
  0
3DFACE
  8
dolph02
 10
-2.061754
 20
-0.506266
 30
0.487539
 11
-1.938238
 21
0.000000
 31
0.377991
 12
-2.447683
 22
0.000000
 32
0.317127
 13
-2.447683
 23
0.000000
 33
0.317127
 62
0
  0
3DFACE
  8
dolph02
 10
-1.938238
 20
0.000000
 30
0.377991
 11
-2.061754
 21
-0.506266
 31
0.487539
 12
-1.509323
 22
-0.594376
 32
0.666291
 13
-1.509323
 23
-0.594376
 33
0.666291
 62
0
  0
3DFACE
  8
dolph02
 10
-1.509323
 20
-0.594376
 30
0.666291
 11
-1.491598
 21
0.000000
 31
0.436539
 12
-1.938238
 22
0.000000
 32
0.377991
 13
-1.938238
 23
0.000000
 33
0.377991
 62
0
  0
3DFACE
  8
dolph02
 10
-2.923593
 20
0.000000
 30
0.216807
 11
-3.033529
 21
-0.245839
 31
0.266523
 12
-2.510428
 22
-0.322826
 32
0.359155
 13
-2.510428
 23
-0.322826
 33
0.359155
 62
0
  0
3DFACE
  8
dolph02
 10
-2.510428
 20
-0.322826
 30
0.359155
 11
-2.447683
 21
0.000000
 31
0.317127
 12
-2.923593
 22
0.000000
 32
0.216807
 13
-2.923593
 23
0.000000
 33
0.216807
 62
0
  0
3DFACE
  8
dolph02
 10
-3.248909
 20
0.000000
 30
0.243837
 11
-3.286785
 21
-0.146753
 31
0.276408
 12
-3.033529
 22
-0.245839
 32
0.266523
 13
-3.033529
 23
-0.245839
 33
0.266523
 62
0
  0
3DFACE
  8
dolph02
 10
-3.033529
 20
-0.245839
 30
0.266523
 11
-2.923593
 21
0.000000
 31
0.216807
 12
-3.248909
 22
0.000000
 32
0.243837
 13
-3.248909
 23
0.000000
 33
0.243837
 62
0
  0
3DFACE
  8
dolph02
 10
-3.622211
 20
0.000000
 30
0.094553
 11
-3.664451
 21
-0.113676
 31
0.116470
 12
-3.286785
 22
-0.146753
 32
0.276408
 13
-3.286785
 23
-0.146753
 33
0.276408
 62
0
  0
3DFACE
  8
dolph02
 10
-3.286785
 20
-0.146753
 30
0.276408
 11
-3.248909
 21
0.000000
 31
0.243837
 12
-3.622211
 22
0.000000
 32
0.094553
 13
-3.622211
 23
0.000000
 33
0.094553
 62
0
  0
3DFACE
  8
dolph02
 10
-3.664451
 20
-0.113676
 30
0.116470
 11
-3.358341
 21
-0.249449
 31
0.344967
 12
-3.286785
 22
-0.146753
 32
0.276408
 13
-3.286785
 23
-0.146753
 33
0.276408
 62
0
  0
3DFACE
  8
dolph02
 10
-3.622211
 20
0.000000
 30
0.094553
 11
-3.902408
 21
0.000000
 31
0.000000
 12
-3.866862
 22
-0.066009
 32
0.030092
 13
-3.866862
 23
-0.066009
 33
0.030092
 62
0
  0
3DFACE
  8
dolph02
 10
-3.866862
 20
-0.066009
 30
0.030092
 11
-3.664451
 21
-0.113676
 31
0.116470
 12
-3.622211
 22
0.000000
 32
0.094553
 13
-3.622211
 23
0.000000
 33
0.094553
 62
0
  0
3DFACE
  8
dolph02
 10
4.000000
 20
-1.251005
 30
0.627905
 11
3.477261
 21
-1.056589
 31
0.624121
 12
3.864916
 22
-0.913591
 32
0.666968
 13
3.864916
 23
-0.913591
 33
0.666968
 62
0
  0
3DFACE
  8
dolph02
 10
3.535598
 20
-0.139385
 30
0.823975
 11
3.300796
 21
-0.238473
 31
0.872694
 12
3.182287
 22
-0.106453
 32
0.970882
 13
3.182287
 23
-0.106453
 33
0.970882
 62
0
  0
3DFACE
  8
dolph02
 10
3.182287
 20
-0.106453
 30
0.970882
 11
3.417171
 21
0.000000
 31
0.870433
 12
3.535598
 22
-0.139385
 32
0.823975
 13
3.535598
 23
-0.139385
 33
0.823975
 62
0
  0
3DFACE
  8
dolph02
 10
3.697720
 20
-0.084354
 30
0.815966
 11
3.535598
 21
-0.139385
 31
0.823975
 12
3.417171
 22
0.000000
 32
0.870433
 13
3.417171
 23
0.000000
 33
0.870433
 62
0
  0
3DFACE
  8
dolph02
 10
3.417171
 20
0.000000
 30
0.870433
 11
3.566255
 21
0.000000
 31
0.819774
 12
3.697720
 22
-0.084354
 32
0.815966
 13
3.697720
 23
-0.084354
 33
0.815966
 62
0
  0
3DFACE
  8
dolph02
 10
2.746918
 20
-0.143141
 30
0.986763
 11
3.094381
 21
-0.264183
 31
0.956690
 12
3.104820
 22
-0.348537
 32
0.912976
 13
3.104820
 23
-0.348537
 33
0.912976
 62
0
  0
3DFACE
  8
dolph02
 10
3.104820
 20
-0.348537
 30
0.912976
 11
2.696008
 21
-0.154119
 31
0.808293
 12
2.746918
 22
-0.143141
 32
0.986763
 13
2.746918
 23
-0.143141
 33
0.986763
 62
0
  0
3DFACE
  8
dolph02
 10
2.696008
 20
-0.154119
 30
0.808293
 11
3.104820
 21
-0.348537
 31
0.912976
 12
3.051574
 22
-0.172462
 32
0.687838
 13
3.051574
 23
-0.172462
 33
0.687838
 62
0
  0
3DFACE
  8
dolph02
 10
-3.579279
 20
-0.073376
 30
0.698424
 11
-3.514718
 21
-0.201784
 31
0.678276
 12
-3.909453
 22
-0.106453
 32
0.269302
 13
-3.909453
 23
-0.106453
 33
0.269302
 62
0
  0
3DFACE
  8
dolph02
 10
-3.909453
 20
-0.106453
 30
0.269302
 11
-3.983537
 21
-0.058643
 31
0.220237
 12
-3.579279
 22
-0.073376
 32
0.698424
 13
-3.579279
 23
-0.073376
 33
0.698424
 62
0
  0
3DFACE
  8
dolph02
 10
-3.983537
 20
-0.058643
 30
0.220237
 11
-3.953350
 21
-0.055033
 31
0.140475
 12
-3.960393
 22
0.000000
 32
0.144684
 13
-3.960393
 23
0.000000
 33
0.144684
 62
0
  0
3DFACE
  8
dolph02
 10
-3.960393
 20
0.000000
 30
0.144684
 11
-4.000000
 21
0.000000
 31
0.243634
 12
-3.983537
 22
-0.058643
 32
0.220237
 13
-3.983537
 23
-0.058643
 33
0.220237
 62
0
  0
3DFACE
  8
dolph02
 10
-3.953350
 20
-0.055033
 30
0.140475
 11
-3.983537
 21
-0.058643
 31
0.220237
 12
-3.909453
 22
-0.106453
 32
0.269302
 13
-3.909453
 23
-0.106453
 33
0.269302
 62
0
  0
3DFACE
  8
dolph02
 10
-3.909453
 20
-0.106453
 30
0.269302
 11
-3.839069
 21
-0.106453
 31
0.230262
 12
-3.953350
 22
-0.055033
 32
0.140475
 13
-3.953350
 23
-0.055033
 33
0.140475
 62
0
  0
3DFACE
  8
dolph02
 10
-3.358341
 20
-0.249449
 30
0.344967
 11
-3.361425
 21
-0.264183
 31
0.396822
 12
-3.066291
 22
-0.396202
 32
0.582169
 13
-3.066291
 23
-0.396202
 33
0.582169
 62
0
  0
3DFACE
  8
dolph02
 10
-3.358341
 20
-0.249449
 30
0.344967
 11
-3.664451
 21
-0.113676
 31
0.116470
 12
-3.697377
 22
-0.157729
 32
0.163267
 13
-3.697377
 23
-0.157729
 33
0.163267
 62
0
  0
3DFACE
  8
dolph02
 10
-3.697377
 20
-0.157729
 30
0.163267
 11
-3.361425
 21
-0.264183
 31
0.396822
 12
-3.358341
 22
-0.249449
 32
0.344967
 13
-3.358341
 23
-0.249449
 33
0.344967
 62
0
  0
3DFACE
  8
dolph02
 10
-3.866862
 20
-0.066009
 30
0.030092
 11
-3.697377
 21
-0.157729
 31
0.163267
 12
-3.664451
 22
-0.113676
 32
0.116470
 13
-3.664451
 23
-0.113676
 33
0.116470
 62
0
  0
3DFACE
  8
dolph02
 10
-3.697377
 20
-0.157729
 30
0.163267
 11
-3.866862
 21
-0.066009
 31
0.030092
 12
-3.933805
 22
-0.069764
 32
0.065222
 13
-3.933805
 23
-0.069764
 33
0.065222
 62
0
  0
3DFACE
  8
dolph02
 10
-3.933805
 20
-0.069764
 30
0.065222
 11
-3.748872
 21
-0.121042
 31
0.208129
 12
-3.697377
 22
-0.157729
 32
0.163267
 13
-3.697377
 23
-0.157729
 33
0.163267
 62
0
  0
3DFACE
  8
dolph02
 10
-3.748872
 20
-0.121042
 30
0.208129
 11
-3.933805
 21
-0.069764
 31
0.065222
 12
-3.953350
 22
-0.055033
 32
0.140475
 13
-3.953350
 23
-0.055033
 33
0.140475
 62
0
  0
3DFACE
  8
dolph02
 10
-3.953350
 20
-0.055033
 30
0.140475
 11
-3.839069
 21
-0.106453
 31
0.230262
 12
-3.748872
 22
-0.121042
 32
0.208129
 13
-3.748872
 23
-0.121042
 33
0.208129
 62
0
  0
3DFACE
  8
dolph02
 10
-3.933805
 20
-0.069764
 30
0.065222
 11
-3.866862
 21
-0.066009
 31
0.030092
 12
-3.902408
 22
0.000000
 32
0.000000
 13
-3.902408
 23
0.000000
 33
0.000000
 62
0
  0
3DFACE
  8
dolph02
 10
-3.902408
 20
0.000000
 30
0.000000
 11
-3.960347
 21
0.000000
 31
0.056267
 12
-3.933805
 22
-0.069764
 32
0.065222
 13
-3.933805
 23
-0.069764
 33
0.065222
 62
0
  0
3DFACE
  8
dolph02
 10
-3.960347
 20
0.000000
 30
0.056267
 11
-3.960393
 21
0.000000
 31
0.144684
 12
-3.953350
 22
-0.055033
 32
0.140475
 13
-3.953350
 23
-0.055033
 33
0.140475
 62
0
  0
3DFACE
  8
dolph02
 10
-3.953350
 20
-0.055033
 30
0.140475
 11
-3.933805
 21
-0.069764
 31
0.065222
 12
-3.960347
 22
0.000000
 32
0.056267
 13
-3.960347
 23
0.000000
 33
0.056267
 62
0
  0
3DFACE
  8
dolph02
 10
-2.915851
 20
-0.443868
 30
1.107103
 11
-3.003870
 21
-0.396202
 31
1.199061
 12
-2.872304
 22
-0.447623
 32
1.188129
 13
-2.872304
 23
-0.447623
 33
1.188129
 62
1
  0
3DFACE
  8
dolph02
 10
-2.872304
 20
-0.447623
 30
1.188129
 11
-2.720284
 21
-0.517244
 31
1.112884
 12
-2.830175
 22
-0.498900
 32
1.074184
 13
-2.830175
 23
-0.498900
 33
1.074184
 62
1
  0
3DFACE
  8
dolph02
 10
-2.949983
 20
-0.498900
 30
0.874268
 11
-2.645588
 21
-0.557688
 31
0.904197
 12
-2.630337
 22
-0.502656
 32
0.733640
 13
-2.630337
 23
-0.502656
 33
0.733640
 62
0
  0
3DFACE
  8
dolph02
 10
-3.258283
 20
-0.300872
 30
0.973515
 11
-3.219236
 21
-0.381614
 31
0.911425
 12
-3.514718
 22
-0.201784
 32
0.678276
 13
-3.514718
 23
-0.201784
 33
0.678276
 62
0
  0
3DFACE
  8
dolph02
 10
-2.872304
 20
-0.447623
 30
1.188129
 11
-2.830175
 21
-0.498900
 31
1.074184
 12
-2.915851
 22
-0.443868
 32
1.107103
 13
-2.915851
 23
-0.443868
 33
1.107103
 62
1
  0
3DFACE
  8
dolph02
 10
-1.254445
 20
-1.166652
 30
0.351507
 11
-1.252366
 21
-1.144697
 31
0.339240
 12
-1.540056
 22
-1.129963
 32
0.364686
 13
-1.540056
 23
-1.129963
 33
0.364686
 62
0
  0
3DFACE
  8
dolph02
 10
-1.540056
 20
-1.129963
 30
0.364686
 11
-1.543904
 21
-1.155674
 31
0.391692
 12
-1.254445
 22
-1.166652
 32
0.351507
 13
-1.254445
 23
-1.166652
 33
0.351507
 62
0
  0
3DFACE
  8
dolph02
 10
-1.713958
 20
-1.030877
 30
0.415565
 11
-1.699679
 21
-1.063954
 31
0.441479
 12
-1.543904
 22
-1.155674
 32
0.391692
 13
-1.543904
 23
-1.155674
 33
0.391692
 62
0
  0
3DFACE
  8
dolph02
 10
-1.543904
 20
-1.155674
 30
0.391692
 11
-1.540056
 21
-1.129963
 31
0.364686
 12
-1.713958
 22
-1.030877
 32
0.415565
 13
-1.713958
 23
-1.030877
 33
0.415565
 62
0
  0
3DFACE
  8
dolph02
 10
-1.252366
 20
-1.144697
 30
0.339240
 11
-1.254445
 21
-1.166652
 31
0.351507
 12
-1.046417
 22
-1.115375
 32
0.366792
 13
-1.046417
 23
-1.115375
 33
0.366792
 62
0
  0
3DFACE
  8
dolph02
 10
-2.061754
 20
-0.506266
 30
0.487539
 11
-1.713958
 21
-1.030877
 31
0.415565
 12
-1.368188
 22
-0.931935
 32
0.530276
 13
-1.368188
 23
-0.931935
 33
0.530276
 62
0
  0
3DFACE
  8
dolph02
 10
-1.368188
 20
-0.931935
 30
0.530276
 11
-1.509323
 21
-0.594376
 31
0.666291
 12
-2.061754
 22
-0.506266
 32
0.487539
 13
-2.061754
 23
-0.506266
 33
0.487539
 62
0
  0
3DFACE
  8
dolph02
 10
-1.540056
 20
-1.129963
 30
0.364686
 11
-1.252366
 21
-1.144697
 31
0.339240
 12
-1.046417
 22
-1.115375
 32
0.366792
 13
-1.046417
 23
-1.115375
 33
0.366792
 62
0
  0
3DFACE
  8
dolph02
 10
-1.046417
 20
-1.115375
 30
0.366792
 11
-1.368188
 21
-0.931935
 31
0.530276
 12
-1.540056
 22
-1.129963
 32
0.364686
 13
-1.540056
 23
-1.129963
 33
0.364686
 62
0
  0
3DFACE
  8
dolph02
 10
-1.713958
 20
-1.030877
 30
0.415565
 11
-1.540056
 21
-1.129963
 31
0.364686
 12
-1.368188
 22
-0.931935
 32
0.530276
 13
-1.368188
 23
-0.931935
 33
0.530276
 62
0
  0
3DFACE
  8
dolph02
 10
-0.016449
 20
-0.168707
 30
2.264831
 11
0.200068
 21
-0.088110
 31
2.573070
 12
0.548605
 22
0.000000
 32
2.411584
 13
0.548605
 23
0.000000
 33
2.411584
 62
0
  0
3DFACE
  8
dolph02
 10
0.548605
 20
0.000000
 30
2.411584
 11
0.555973
 21
-0.143141
 31
2.151157
 12
-0.016449
 22
-0.168707
 32
2.264831
 13
-0.016449
 23
-0.168707
 33
2.264831
 62
0
  0
3DFACE
  8
dolph02
 10
0.354189
 20
-0.051421
 30
2.741777
 11
0.684380
 21
0.000000
 31
2.712456
 12
0.548605
 22
0.000000
 32
2.411584
 13
0.548605
 23
0.000000
 33
2.411584
 62
0
  0
3DFACE
  8
dolph02
 10
0.548605
 20
0.000000
 30
2.411584
 11
0.200068
 21
-0.088110
 31
2.573070
 12
0.354189
 22
-0.051421
 32
2.741777
 13
0.354189
 23
-0.051421
 33
2.741777
 62
0
  0
3DFACE
  8
dolph02
 10
0.809034
 20
0.000000
 30
2.998594
 11
0.853087
 21
0.000000
 31
2.881308
 12
0.684380
 22
0.000000
 32
2.712456
 13
0.684380
 23
0.000000
 33
2.712456
 62
0
  0
3DFACE
  8
dolph02
 10
0.684380
 20
0.000000
 30
2.712456
 11
0.354189
 21
-0.051421
 31
2.741777
 12
0.809034
 22
0.000000
 32
2.998594
 13
0.809034
 23
0.000000
 33
2.998594
 62
0
  0
3DFACE
  8
dolph02
 10
0.574316
 20
-0.018344
 30
3.005960
 11
0.809034
 21
0.000000
 31
2.998594
 12
0.354189
 22
-0.051421
 32
2.741777
 13
0.354189
 23
-0.051421
 33
2.741777
 62
0
  0
3DFACE
  8
dolph02
 10
-0.174178
 20
0.000000
 30
0.456140
 11
-0.199889
 21
-0.550321
 31
0.624990
 12
0.497185
 22
-0.447623
 32
0.588302
 13
0.497185
 23
-0.447623
 33
0.588302
 62
0
  0
3DFACE
  8
dolph02
 10
0.497185
 20
-0.447623
 30
0.588302
 11
0.464252
 21
0.000000
 31
0.430429
 12
-0.174178
 22
0.000000
 32
0.456140
 13
-0.174178
 23
0.000000
 33
0.456140
 62
0
  0
3DFACE
  8
dolph02
 10
-0.746455
 20
-0.542955
 30
0.595525
 11
-0.199889
 21
-0.550321
 31
0.624990
 12
-0.174178
 22
0.000000
 32
0.456140
 13
-0.174178
 23
0.000000
 33
0.456140
 62
0
  0
3DFACE
  8
dolph02
 10
-0.174178
 20
0.000000
 30
0.456140
 11
-0.797876
 21
0.000000
 31
0.404862
 12
-0.746455
 22
-0.542955
 32
0.595525
 13
-0.746455
 23
-0.542955
 33
0.595525
 62
0
  0
3DFACE
  8
dolph02
 10
2.057514
 20
-0.139385
 30
0.580160
 11
2.411182
 21
-0.102698
 31
0.649631
 12
2.387870
 22
0.000000
 32
0.589101
 13
2.387870
 23
0.000000
 33
0.589101
 62
0
  0
3DFACE
  8
dolph02
 10
2.387870
 20
0.000000
 30
0.589101
 11
2.020607
 21
0.000000
 31
0.548163
 12
2.057514
 22
-0.139385
 32
0.580160
 13
2.057514
 23
-0.139385
 33
0.580160
 62
0
  0
3DFACE
  8
dolph02
 10
2.057514
 20
-0.139385
 30
0.580160
 11
2.020607
 21
0.000000
 31
0.548163
 12
1.513324
 22
0.000000
 32
0.591898
 13
1.513324
 23
0.000000
 33
0.591898
 62
0
  0
3DFACE
  8
dolph02
 10
1.513324
 20
0.000000
 30
0.591898
 11
1.440729
 21
-0.249449
 31
0.633347
 12
2.057514
 22
-0.139385
 32
0.580160
 13
2.057514
 23
-0.139385
 33
0.580160
 62
0
  0
3DFACE
  8
dolph02
 10
3.084008
 20
0.000000
 30
0.666461
 11
2.867586
 21
0.000000
 31
0.643766
 12
2.848660
 22
-0.080742
 32
0.667260
 13
2.848660
 23
-0.080742
 33
0.667260
 62
0
  0
3DFACE
  8
dolph02
 10
2.848660
 20
-0.080742
 30
0.667260
 11
3.051574
 21
-0.172462
 31
0.687838
 12
3.084008
 22
0.000000
 32
0.666461
 13
3.084008
 23
0.000000
 33
0.666461
 62
0
  0
3DFACE
  8
dolph02
 10
3.477261
 20
-1.056589
 30
0.624121
 11
3.480078
 21
-1.056589
 31
0.586947
 12
3.233691
 22
-0.755717
 32
0.654370
 13
3.233691
 23
-0.755717
 33
0.654370
 62
0
  0
3DFACE
  8
dolph02
 10
3.233691
 20
-0.755717
 30
0.654370
 11
3.231511
 21
-0.755717
 31
0.717809
 12
3.477261
 22
-1.056589
 32
0.624121
 13
3.477261
 23
-1.056589
 33
0.624121
 62
0
  0
3DFACE
  8
dolph02
 10
3.051574
 20
-0.172462
 30
0.687838
 11
3.104820
 21
-0.348537
 31
0.912976
 12
3.231511
 22
-0.755717
 32
0.717809
 13
3.231511
 23
-0.755717
 33
0.717809
 62
0
  0
3DFACE
  8
dolph02
 10
3.231511
 20
-0.755717
 30
0.717809
 11
3.233691
 21
-0.755717
 31
0.654370
 12
3.051574
 22
-0.172462
 32
0.687838
 13
3.051574
 23
-0.172462
 33
0.687838
 62
0
  0
3DFACE
  8
dolph02
 10
3.480078
 20
-1.056589
 30
0.586947
 11
3.477261
 21
-1.056589
 31
0.624121
 12
4.000000
 22
-1.251005
 32
0.627905
 13
4.000000
 23
-1.251005
 33
0.627905
 62
0
  0
3DFACE
  8
dolph02
 10
3.267614
 20
0.000000
 30
0.984461
 11
3.417171
 21
0.000000
 31
0.870433
 12
3.182287
 22
-0.106453
 32
0.970882
 13
3.182287
 23
-0.106453
 33
0.970882
 62
0
  0
3DFACE
  8
dolph02
 10
3.566255
 20
0.000000
 30
0.819774
 11
3.084008
 21
0.000000
 31
0.666461
 12
3.051574
 22
-0.172462
 32
0.687838
 13
3.051574
 23
-0.172462
 33
0.687838
 62
0
  0
3DFACE
  8
dolph02
 10
3.772200
 20
-0.311849
 30
0.742648
 11
3.697720
 21
-0.084354
 31
0.815966
 12
3.566255
 22
0.000000
 32
0.819774
 13
3.566255
 23
0.000000
 33
0.819774
 62
0
  0
3DFACE
  8
dolph02
 10
3.566255
 20
0.000000
 30
0.819774
 11
3.051574
 21
-0.172462
 31
0.687838
 12
3.772200
 22
-0.311849
 32
0.742648
 13
3.772200
 23
-0.311849
 33
0.742648
 62
0
  0
3DFACE
  8
dolph02
 10
3.233691
 20
-0.755717
 30
0.654370
 11
3.772200
 21
-0.311849
 31
0.742648
 12
3.051574
 22
-0.172462
 32
0.687838
 13
3.051574
 23
-0.172462
 33
0.687838
 62
0
  0
3DFACE
  8
dolph02
 10
3.480078
 20
-1.056589
 30
0.586947
 11
3.864916
 21
-0.913591
 31
0.666968
 12
3.772200
 22
-0.311849
 32
0.742648
 13
3.772200
 23
-0.311849
 33
0.742648
 62
0
  0
3DFACE
  8
dolph02
 10
3.772200
 20
-0.311849
 30
0.742648
 11
3.233691
 21
-0.755717
 31
0.654370
 12
3.480078
 22
-1.056589
 32
0.586947
 13
3.480078
 23
-1.056589
 33
0.586947
 62
0
  0
3DFACE
  8
dolph02
 10
4.000000
 20
-1.251005
 30
0.627905
 11
3.864916
 21
-0.913591
 31
0.666968
 12
3.480078
 22
-1.056589
 32
0.586947
 13
3.480078
 23
-1.056589
 33
0.586947
 62
0
  0
3DFACE
  8
dolph02
 10
3.772200
 20
-0.311849
 30
0.742648
 11
3.864916
 21
-0.913591
 31
0.666968
 12
3.477261
 22
-1.056589
 32
0.624121
 13
3.477261
 23
-1.056589
 33
0.624121
 62
0
  0
3DFACE
  8
dolph02
 10
3.477261
 20
-1.056589
 30
0.624121
 11
3.231511
 21
-0.755717
 31
0.717809
 12
3.772200
 22
-0.311849
 32
0.742648
 13
3.772200
 23
-0.311849
 33
0.742648
 62
0
  0
3DFACE
  8
dolph02
 10
3.535598
 20
-0.139385
 30
0.823975
 11
3.697720
 21
-0.084354
 31
0.815966
 12
3.772200
 22
-0.311849
 32
0.742648
 13
3.772200
 23
-0.311849
 33
0.742648
 62
0
  0
3DFACE
  8
dolph02
 10
3.772200
 20
-0.311849
 30
0.742648
 11
3.231511
 21
-0.755717
 31
0.717809
 12
3.535598
 22
-0.139385
 32
0.823975
 13
3.535598
 23
-0.139385
 33
0.823975
 62
0
  0
3DFACE
  8
dolph02
 10
3.300796
 20
-0.238473
 30
0.872694
 11
3.535598
 21
-0.139385
 31
0.823975
 12
3.231511
 22
-0.755717
 32
0.717809
 13
3.231511
 23
-0.755717
 33
0.717809
 62
0
  0
3DFACE
  8
dolph02
 10
3.104820
 20
-0.348537
 30
0.912976
 11
3.300796
 21
-0.238473
 31
0.872694
 12
3.231511
 22
-0.755717
 32
0.717809
 13
3.231511
 23
-0.755717
 33
0.717809
 62
0
  0
3DFACE
  8
dolph02
 10
3.094381
 20
-0.264183
 30
0.956690
 11
3.182287
 21
-0.106453
 31
0.970882
 12
3.300796
 22
-0.238473
 32
0.872694
 13
3.300796
 23
-0.238473
 33
0.872694
 62
0
  0
3DFACE
  8
dolph02
 10
3.300796
 20
-0.238473
 30
0.872694
 11
3.104820
 21
-0.348537
 31
0.912976
 12
3.094381
 22
-0.264183
 32
0.956690
 13
3.094381
 23
-0.264183
 33
0.956690
 62
0
  0
3DFACE
  8
dolph02
 10
-2.758110
 20
-0.076987
 30
1.587368
 11
-2.732893
 21
0.000000
 31
1.625710
 12
-2.682962
 22
0.000000
 32
1.650985
 13
-2.682962
 23
0.000000
 33
1.650985
 62
0
  0
3DFACE
  8
dolph02
 10
-2.732893
 20
0.000000
 30
1.625710
 11
-2.758110
 21
-0.076987
 31
1.587368
 12
-3.137704
 22
-0.201784
 32
1.317002
 13
-3.137704
 23
-0.201784
 33
1.317002
 62
0
  0
3DFACE
  8
dolph02
 10
-3.137704
 20
-0.201784
 30
1.317002
 11
-3.075267
 21
0.000000
 31
1.403851
 12
-2.732893
 22
0.000000
 32
1.625710
 13
-2.732893
 23
0.000000
 33
1.625710
 62
0
  0
3DFACE
  8
dolph02
 10
-2.758110
 20
-0.076987
 30
1.587368
 11
-2.746011
 21
-0.201784
 31
1.556795
 12
-3.137704
 22
-0.201784
 32
1.317002
 13
-3.137704
 23
-0.201784
 33
1.317002
 62
0
  0
3DFACE
  8
dolph02
 10
-0.273266
 20
0.088110
 30
2.785832
 11
-0.383330
 21
0.000000
 31
2.804176
 12
-0.940873
 22
0.000000
 32
2.301520
 13
-0.940873
 23
0.000000
 33
2.301520
 62
0
  0
3DFACE
  8
dolph02
 10
-0.940873
 20
0.000000
 30
2.301520
 11
-0.863886
 21
0.117431
 31
2.290543
 12
-0.273266
 22
0.088110
 32
2.785832
 13
-0.273266
 23
0.088110
 33
2.785832
 62
0
  0
3DFACE
  8
dolph02
 10
0.141425
 20
0.051421
 30
2.991373
 11
0.093616
 21
0.000000
 31
3.035281
 12
-0.383330
 22
0.000000
 32
2.804176
 13
-0.383330
 23
0.000000
 33
2.804176
 62
0
  0
3DFACE
  8
dolph02
 10
-0.383330
 20
0.000000
 30
2.804176
 11
-0.273266
 21
0.088110
 31
2.785832
 12
0.141425
 22
0.051421
 32
2.991373
 13
0.141425
 23
0.051421
 33
2.991373
 62
0
  0
3DFACE
  8
dolph02
 10
0.574316
 20
0.018344
 30
3.005960
 11
0.548605
 21
0.000000
 31
3.068358
 12
0.093616
 22
0.000000
 32
3.035281
 13
0.093616
 23
0.000000
 33
3.035281
 62
0
  0
3DFACE
  8
dolph02
 10
0.093616
 20
0.000000
 30
3.035281
 11
0.141425
 21
0.051421
 31
2.991373
 12
0.574316
 22
0.018344
 32
3.005960
 13
0.574316
 23
0.018344
 33
3.005960
 62
0
  0
3DFACE
  8
dolph02
 10
0.809034
 20
0.000000
 30
2.998594
 11
0.548605
 21
0.000000
 31
3.068358
 12
0.574316
 22
0.018344
 32
3.005960
 13
0.574316
 23
0.018344
 33
3.005960
 62
0
  0
3DFACE
  8
dolph02
 10
0.702724
 20
0.000000
 30
2.052071
 11
0.548605
 21
0.000000
 31
2.411584
 12
0.555973
 22
0.143141
 32
2.151157
 13
0.555973
 23
0.143141
 33
2.151157
 62
0
  0
3DFACE
  8
dolph02
 10
0.200068
 20
0.088110
 30
2.573070
 11
-0.273266
 21
0.088110
 31
2.785832
 12
-0.863886
 22
0.117431
 32
2.290543
 13
-0.863886
 23
0.117431
 33
2.290543
 62
0
  0
3DFACE
  8
dolph02
 10
-0.863886
 20
0.117431
 30
2.290543
 11
-0.016449
 21
0.168707
 31
2.264831
 12
0.200068
 22
0.088110
 32
2.573070
 13
0.200068
 23
0.088110
 33
2.573070
 62
0
  0
3DFACE
  8
dolph02
 10
0.354189
 20
0.051421
 30
2.741777
 11
0.141425
 21
0.051421
 31
2.991373
 12
-0.273266
 22
0.088110
 32
2.785832
 13
-0.273266
 23
0.088110
 33
2.785832
 62
0
  0
3DFACE
  8
dolph02
 10
-0.273266
 20
0.088110
 30
2.785832
 11
0.200068
 21
0.088110
 31
2.573070
 12
0.354189
 22
0.051421
 32
2.741777
 13
0.354189
 23
0.051421
 33
2.741777
 62
0
  0
3DFACE
  8
dolph02
 10
0.574316
 20
0.018344
 30
3.005960
 11
0.141425
 21
0.051421
 31
2.991373
 12
0.354189
 22
0.051421
 32
2.741777
 13
0.354189
 23
0.051421
 33
2.741777
 62
0
  0
3DFACE
  8
dolph02
 10
-3.510258
 20
0.000000
 30
1.042427
 11
-3.432577
 21
0.110064
 31
1.091194
 12
-3.346441
 22
0.000000
 32
1.198104
 13
-3.346441
 23
0.000000
 33
1.198104
 62
0
  0
3DFACE
  8
dolph02
 10
-3.137704
 20
0.201784
 30
1.317002
 11
-3.075267
 21
0.000000
 31
1.403851
 12
-3.346441
 22
0.000000
 32
1.198104
 13
-3.346441
 23
0.000000
 33
1.198104
 62
0
  0
3DFACE
  8
dolph02
 10
-3.346441
 20
0.000000
 30
1.198104
 11
-3.432577
 21
0.110064
 31
1.091194
 12
-3.137704
 22
0.201784
 32
1.317002
 13
-3.137704
 23
0.201784
 33
1.317002
 62
0
  0
3DFACE
  8
dolph02
 10
-2.164721
 20
0.000000
 30
1.950269
 11
-2.682962
 21
0.000000
 31
1.650985
 12
-2.758110
 22
0.076987
 32
1.587368
 13
-2.758110
 23
0.076987
 33
1.587368
 62
0
  0
3DFACE
  8
dolph02
 10
-2.758110
 20
0.076987
 30
1.587368
 11
-2.746011
 21
0.201784
 31
1.556795
 12
-2.164721
 22
0.000000
 32
1.950269
 13
-2.164721
 23
0.000000
 33
1.950269
 62
0
  0
3DFACE
  8
dolph02
 10
-2.186688
 20
0.264183
 30
1.863826
 11
-2.164721
 21
0.000000
 31
1.950269
 12
-2.746011
 22
0.201784
 32
1.556795
 13
-2.746011
 23
0.201784
 33
1.556795
 62
0
  0
3DFACE
  8
dolph02
 10
-1.543219
 20
0.322826
 30
2.119513
 11
-1.525892
 21
0.000000
 31
2.195470
 12
-2.164721
 22
0.000000
 32
1.950269
 13
-2.164721
 23
0.000000
 33
1.950269
 62
0
  0
3DFACE
  8
dolph02
 10
-2.164721
 20
0.000000
 30
1.950269
 11
-2.186688
 21
0.264183
 31
1.863826
 12
-1.543219
 22
0.322826
 32
2.119513
 13
-1.543219
 23
0.322826
 33
2.119513
 62
0
  0
3DFACE
  8
dolph02
 10
-0.863886
 20
0.117431
 30
2.290543
 11
-0.940873
 21
0.000000
 31
2.301520
 12
-1.525892
 22
0.000000
 32
2.195470
 13
-1.525892
 23
0.000000
 33
2.195470
 62
0
  0
3DFACE
  8
dolph02
 10
-1.525892
 20
0.000000
 30
2.195470
 11
-1.543219
 21
0.322826
 31
2.119513
 12
-0.863886
 22
0.117431
 32
2.290543
 13
-0.863886
 23
0.117431
 33
2.290543
 62
0
  0
3DFACE
  8
dolph02
 10
-0.907939
 20
0.355903
 30
2.074170
 11
-0.863886
 21
0.117431
 31
2.290543
 12
-1.543219
 22
0.322826
 32
2.119513
 13
-1.543219
 23
0.322826
 33
2.119513
 62
0
  0
3DFACE
  8
dolph02
 10
-0.067725
 20
0.385224
 30
2.052071
 11
-0.016449
 21
0.168707
 31
2.264831
 12
-0.863886
 22
0.117431
 32
2.290543
 13
-0.863886
 23
0.117431
 33
2.290543
 62
0
  0
3DFACE
  8
dolph02
 10
-0.863886
 20
0.117431
 30
2.290543
 11
-0.907939
 21
0.355903
 31
2.074170
 12
-0.067725
 22
0.385224
 32
2.052071
 13
-0.067725
 23
0.385224
 33
2.052071
 62
0
  0
3DFACE
  8
dolph02
 10
0.743023
 20
0.293504
 30
1.879607
 11
0.555973
 21
0.143141
 31
2.151157
 12
-0.016449
 22
0.168707
 32
2.264831
 13
-0.016449
 23
0.168707
 33
2.264831
 62
0
  0
3DFACE
  8
dolph02
 10
-0.016449
 20
0.168707
 30
2.264831
 11
-0.067725
 21
0.385224
 31
2.052071
 12
0.743023
 22
0.293504
 32
1.879607
 13
0.743023
 23
0.293504
 33
1.879607
 62
0
  0
3DFACE
  8
dolph02
 10
0.702724
 20
0.000000
 30
2.052071
 11
0.555973
 21
0.143141
 31
2.151157
 12
0.743023
 22
0.293504
 32
1.879607
 13
0.743023
 23
0.293504
 33
1.879607
 62
0
  0
3DFACE
  8
dolph02
 10
1.531420
 20
0.000000
 30
1.768922
 11
0.702724
 21
0.000000
 31
2.052071
 12
0.743023
 22
0.293504
 32
1.879607
 13
0.743023
 23
0.293504
 33
1.879607
 62
0
  0
3DFACE
  8
dolph02
 10
0.743023
 20
0.293504
 30
1.879607
 11
1.535584
 21
0.168707
 31
1.707661
 12
1.531420
 22
0.000000
 32
1.768922
 13
1.531420
 23
0.000000
 33
1.768922
 62
0
  0
3DFACE
  8
dolph02
 10
2.114522
 20
0.212762
 30
1.413597
 11
2.124038
 21
0.000000
 31
1.583036
 12
1.531420
 22
0.000000
 32
1.768922
 13
1.531420
 23
0.000000
 33
1.768922
 62
0
  0
3DFACE
  8
dolph02
 10
1.531420
 20
0.000000
 30
1.768922
 11
1.535584
 21
0.168707
 31
1.707661
 12
2.114522
 22
0.212762
 32
1.413597
 13
2.114522
 23
0.212762
 33
1.413597
 62
0
  0
3DFACE
  8
dolph02
 10
2.492853
 20
0.172462
 30
1.230714
 11
2.479676
 21
0.000000
 31
1.458655
 12
2.124038
 22
0.000000
 32
1.583036
 13
2.124038
 23
0.000000
 33
1.583036
 62
0
  0
3DFACE
  8
dolph02
 10
2.124038
 20
0.000000
 30
1.583036
 11
2.114522
 21
0.212762
 31
1.413597
 12
2.492853
 22
0.172462
 32
1.230714
 13
2.492853
 23
0.172462
 33
1.230714
 62
0
  0
3DFACE
  8
dolph02
 10
2.845411
 20
0.113676
 30
1.113487
 11
2.818886
 21
0.000000
 31
1.325071
 12
2.479676
 22
0.000000
 32
1.458655
 13
2.479676
 23
0.000000
 33
1.458655
 62
0
  0
3DFACE
  8
dolph02
 10
2.479676
 20
0.000000
 30
1.458655
 11
2.492853
 21
0.172462
 31
1.230714
 12
2.845411
 22
0.113676
 32
1.113487
 13
2.845411
 23
0.113676
 33
1.113487
 62
0
  0
3DFACE
  8
dolph02
 10
3.117374
 20
0.139385
 30
1.066242
 11
3.087764
 21
0.000000
 31
1.196584
 12
2.818886
 22
0.000000
 32
1.325071
 13
2.818886
 23
0.000000
 33
1.325071
 62
0
  0
3DFACE
  8
dolph02
 10
2.818886
 20
0.000000
 30
1.325071
 11
2.845411
 21
0.113676
 31
1.113487
 12
3.117374
 22
0.139385
 32
1.066242
 13
3.117374
 23
0.139385
 33
1.066242
 62
0
  0
3DFACE
  8
dolph02
 10
3.182287
 20
0.106453
 30
0.970882
 11
3.267614
 21
0.000000
 31
0.984461
 12
3.087764
 22
0.000000
 32
1.196584
 13
3.087764
 23
0.000000
 33
1.196584
 62
0
  0
3DFACE
  8
dolph02
 10
3.087764
 20
0.000000
 30
1.196584
 11
3.117374
 21
0.139385
 31
1.066242
 12
3.182287
 22
0.106453
 32
0.970882
 13
3.182287
 23
0.106453
 33
0.970882
 62
0
  0
3DFACE
  8
dolph02
 10
-2.746011
 20
0.201784
 30
1.556795
 11
-3.137704
 21
0.201784
 31
1.317002
 12
-2.790169
 22
0.322826
 32
1.468428
 13
-2.790169
 23
0.322826
 33
1.468428
 62
0
  0
3DFACE
  8
dolph02
 10
-2.746011
 20
0.201784
 30
1.556795
 11
-2.790169
 21
0.322826
 31
1.468428
 12
-2.557632
 22
0.473334
 32
1.430699
 13
-2.557632
 23
0.473334
 33
1.430699
 62
0
  0
3DFACE
  8
dolph02
 10
-2.186688
 20
0.264183
 30
1.863826
 11
-2.746011
 21
0.201784
 31
1.556795
 12
-2.557632
 22
0.473334
 32
1.430699
 13
-2.557632
 23
0.473334
 33
1.430699
 62
0
  0
3DFACE
  8
dolph02
 10
-2.557632
 20
0.473334
 30
1.430699
 11
-2.111991
 21
0.432891
 31
1.655139
 12
-2.186688
 22
0.264183
 32
1.863826
 13
-2.186688
 23
0.264183
 33
1.863826
 62
0
  0
3DFACE
  8
dolph02
 10
-1.558352
 20
0.462213
 30
1.848429
 11
-1.543219
 21
0.322826
 31
2.119513
 12
-2.186688
 22
0.264183
 32
1.863826
 13
-2.186688
 23
0.264183
 33
1.863826
 62
0
  0
3DFACE
  8
dolph02
 10
-2.186688
 20
0.264183
 30
1.863826
 11
-2.111991
 21
0.432891
 31
1.655139
 12
-1.558352
 22
0.462213
 32
1.848429
 13
-1.558352
 23
0.462213
 33
1.848429
 62
0
  0
3DFACE
  8
dolph02
 10
-0.907939
 20
0.517244
 30
1.817353
 11
-0.907939
 21
0.355903
 31
2.074170
 12
-1.543219
 22
0.322826
 32
2.119513
 13
-1.543219
 23
0.322826
 33
2.119513
 62
0
  0
3DFACE
  8
dolph02
 10
-1.543219
 20
0.322826
 30
2.119513
 11
-1.558352
 21
0.462213
 31
1.848429
 12
-0.907939
 22
0.517244
 32
1.817353
 13
-0.907939
 23
0.517244
 33
1.817353
 62
0
  0
3DFACE
  8
dolph02
 10
-0.177790
 20
0.491678
 30
1.799010
 11
-0.067725
 21
0.385224
 31
2.052071
 12
-0.907939
 22
0.355903
 32
2.074170
 13
-0.907939
 23
0.355903
 33
2.074170
 62
0
  0
3DFACE
  8
dolph02
 10
-0.907939
 20
0.355903
 30
2.074170
 11
-0.907939
 21
0.517244
 31
1.817353
 12
-0.177790
 22
0.491678
 32
1.799010
 13
-0.177790
 23
0.491678
 33
1.799010
 62
0
  0
3DFACE
  8
dolph02
 10
0.695358
 20
0.410935
 30
1.685189
 11
0.743023
 21
0.293504
 31
1.879607
 12
-0.067725
 22
0.385224
 32
2.052071
 13
-0.067725
 23
0.385224
 33
2.052071
 62
0
  0
3DFACE
  8
dolph02
 10
-0.067725
 20
0.385224
 30
2.052071
 11
-0.177790
 21
0.491678
 31
1.799010
 12
0.695358
 22
0.410935
 32
1.685189
 13
0.695358
 23
0.410935
 33
1.685189
 62
0
  0
3DFACE
  8
dolph02
 10
1.530652
 20
0.264183
 30
1.597945
 11
1.535584
 21
0.168707
 31
1.707661
 12
0.743023
 22
0.293504
 32
1.879607
 13
0.743023
 23
0.293504
 33
1.879607
 62
0
  0
3DFACE
  8
dolph02
 10
0.743023
 20
0.293504
 30
1.879607
 11
0.695358
 21
0.410935
 31
1.685189
 12
1.530652
 22
0.264183
 32
1.597945
 13
1.530652
 23
0.264183
 33
1.597945
 62
0
  0
3DFACE
  8
dolph02
 10
2.114522
 20
0.212762
 30
1.413597
 11
1.535584
 21
0.168707
 31
1.707661
 12
1.530652
 22
0.264183
 32
1.597945
 13
1.530652
 23
0.264183
 33
1.597945
 62
0
  0
3DFACE
  8
dolph02
 10
-2.790169
 20
0.322826
 30
1.468428
 11
-2.885680
 21
0.458601
 31
1.292291
 12
-2.741250
 22
0.528367
 32
1.258260
 13
-2.741250
 23
0.528367
 33
1.258260
 62
0
  0
3DFACE
  8
dolph02
 10
-2.741250
 20
0.528367
 30
1.258260
 11
-2.557632
 21
0.473334
 31
1.430699
 12
-2.790169
 22
0.322826
 32
1.468428
 13
-2.790169
 23
0.322826
 33
1.468428
 62
0
  0
3DFACE
  8
dolph02
 10
-3.137704
 20
0.201784
 30
1.317002
 11
-3.003870
 21
0.396202
 31
1.199061
 12
-2.885680
 22
0.458601
 32
1.292291
 13
-2.885680
 23
0.458601
 33
1.292291
 62
0
  0
3DFACE
  8
dolph02
 10
-2.885680
 20
0.458601
 30
1.292291
 11
-2.790169
 21
0.322826
 31
1.468428
 12
-3.137704
 22
0.201784
 32
1.317002
 13
-3.137704
 23
0.201784
 33
1.317002
 62
0
  0
3DFACE
  8
dolph02
 10
-3.258283
 20
0.300872
 30
0.973515
 11
-3.003870
 21
0.396202
 31
1.199061
 12
-3.137704
 22
0.201784
 32
1.317002
 13
-3.137704
 23
0.201784
 33
1.317002
 62
0
  0
3DFACE
  8
dolph02
 10
-3.137704
 20
0.201784
 30
1.317002
 11
-3.432577
 21
0.110064
 31
1.091194
 12
-3.258283
 22
0.300872
 32
0.973515
 13
-3.258283
 23
0.300872
 33
0.973515
 62
0
  0
3DFACE
  8
dolph02
 10
-3.479981
 20
0.146753
 30
0.785834
 11
-3.258283
 21
0.300872
 31
0.973515
 12
-3.432577
 22
0.110064
 32
1.091194
 13
-3.432577
 23
0.110064
 33
1.091194
 62
0
  0
3DFACE
  8
dolph02
 10
-2.885680
 20
0.458601
 30
1.292291
 11
-2.872304
 21
0.447623
 31
1.188129
 12
-2.720284
 22
0.517244
 32
1.112884
 13
-2.720284
 23
0.517244
 33
1.112884
 62
0
  0
3DFACE
  8
dolph02
 10
-2.720284
 20
0.517244
 30
1.112884
 11
-2.741250
 21
0.528367
 31
1.258260
 12
-2.885680
 22
0.458601
 32
1.292291
 13
-2.885680
 23
0.458601
 33
1.292291
 62
0
  0
3DFACE
  8
dolph02
 10
-3.003870
 20
0.396202
 30
1.199061
 11
-2.872304
 21
0.447623
 31
1.188129
 12
-2.885680
 22
0.458601
 32
1.292291
 13
-2.885680
 23
0.458601
 33
1.292291
 62
0
  0
3DFACE
  8
dolph02
 10
-3.479981
 20
0.146753
 30
0.785834
 11
-3.514718
 21
0.201784
 31
0.678276
 12
-3.258283
 22
0.300872
 32
0.973515
 13
-3.258283
 23
0.300872
 33
0.973515
 62
0
  0
3DFACE
  8
dolph02
 10
-3.514718
 20
0.201784
 30
0.678276
 11
-3.909453
 21
0.106453
 31
0.269302
 12
-3.839069
 22
0.106453
 32
0.230262
 13
-3.839069
 23
0.106453
 33
0.230262
 62
0
  0
3DFACE
  8
dolph02
 10
-3.839069
 20
0.106453
 30
0.230262
 11
-3.427515
 21
0.216517
 31
0.531164
 12
-3.514718
 22
0.201784
 32
0.678276
 13
-3.514718
 23
0.201784
 33
0.678276
 62
0
  0
3DFACE
  8
dolph02
 10
-3.579279
 20
0.073376
 30
0.698424
 11
-3.622325
 21
0.000000
 31
0.668810
 12
-4.000000
 22
0.000000
 32
0.243634
 13
-4.000000
 23
0.000000
 33
0.243634
 62
0
  0
3DFACE
  8
dolph02
 10
-4.000000
 20
0.000000
 30
0.243634
 11
-3.983537
 21
0.058643
 31
0.220237
 12
-3.579279
 22
0.073376
 32
0.698424
 13
-3.579279
 23
0.073376
 33
0.698424
 62
0
  0
3DFACE
  8
dolph02
 10
-3.510258
 20
0.000000
 30
1.042427
 11
-3.579279
 21
0.073376
 31
0.698424
 12
-3.479981
 22
0.146753
 32
0.785834
 13
-3.479981
 23
0.146753
 33
0.785834
 62
0
  0
3DFACE
  8
dolph02
 10
-3.479981
 20
0.146753
 30
0.785834
 11
-3.432577
 21
0.110064
 31
1.091194
 12
-3.510258
 22
0.000000
 32
1.042427
 13
-3.510258
 23
0.000000
 33
1.042427
 62
0
  0
3DFACE
  8
dolph02
 10
-3.622325
 20
0.000000
 30
0.668810
 11
-3.579279
 21
0.073376
 31
0.698424
 12
-3.510258
 22
0.000000
 32
1.042427
 13
-3.510258
 23
0.000000
 33
1.042427
 62
0
  0
3DFACE
  8
dolph02
 10
-3.020020
 20
0.443868
 30
0.961109
 11
-2.915851
 21
0.443868
 31
1.107103
 12
-3.003870
 22
0.396202
 32
1.199061
 13
-3.003870
 23
0.396202
 33
1.199061
 62
0
  0
3DFACE
  8
dolph02
 10
-3.003870
 20
0.396202
 30
1.199061
 11
-3.031353
 21
0.440257
 31
1.002633
 12
-3.020020
 22
0.443868
 32
0.961109
 13
-3.020020
 23
0.443868
 33
0.961109
 62
0
  0
3DFACE
  8
dolph02
 10
-3.031353
 20
0.440257
 30
1.002633
 11
-3.003870
 21
0.396202
 31
1.199061
 12
-3.258283
 22
0.300872
 32
0.973515
 13
-3.258283
 23
0.300872
 33
0.973515
 62
0
  0
3DFACE
  8
dolph02
 10
-3.258283
 20
0.300872
 30
0.973515
 11
-3.219236
 21
0.381614
 31
0.911425
 12
-3.031353
 22
0.440257
 32
1.002633
 13
-3.031353
 23
0.440257
 33
1.002633
 62
0
  0
3DFACE
  8
dolph02
 10
-3.178110
 20
0.374248
 30
0.830755
 11
-3.020020
 21
0.443868
 31
0.961109
 12
-3.031353
 22
0.440257
 32
1.002633
 13
-3.031353
 23
0.440257
 33
1.002633
 62
0
  0
3DFACE
  8
dolph02
 10
-3.031353
 20
0.440257
 30
1.002633
 11
-3.219236
 21
0.381614
 31
0.911425
 12
-3.178110
 22
0.374248
 32
0.830755
 13
-3.178110
 23
0.374248
 33
0.830755
 62
0
  0
3DFACE
  8
dolph02
 10
-3.427515
 20
0.216517
 30
0.531164
 11
-3.178110
 21
0.374248
 31
0.830755
 12
-3.219236
 22
0.381614
 32
0.911425
 13
-3.219236
 23
0.381614
 33
0.911425
 62
0
  0
3DFACE
  8
dolph02
 10
-3.219236
 20
0.381614
 30
0.911425
 11
-3.514718
 21
0.201784
 31
0.678276
 12
-3.427515
 22
0.216517
 32
0.531164
 13
-3.427515
 23
0.216517
 33
0.531164
 62
0
  0
3DFACE
  8
dolph02
 10
-3.748872
 20
0.121042
 30
0.208129
 11
-3.377228
 21
0.234861
 31
0.471764
 12
-3.427515
 22
0.216517
 32
0.531164
 13
-3.427515
 23
0.216517
 33
0.531164
 62
0
  0
3DFACE
  8
dolph02
 10
-3.427515
 20
0.216517
 30
0.531164
 11
-3.839069
 21
0.106453
 31
0.230262
 12
-3.748872
 22
0.121042
 32
0.208129
 13
-3.748872
 23
0.121042
 33
0.208129
 62
0
  0
3DFACE
  8
dolph02
 10
-3.096178
 20
0.374248
 30
0.665530
 11
-3.178110
 21
0.374248
 31
0.830755
 12
-3.427515
 22
0.216517
 32
0.531164
 13
-3.427515
 23
0.216517
 33
0.531164
 62
0
  0
3DFACE
  8
dolph02
 10
-3.427515
 20
0.216517
 30
0.531164
 11
-3.377228
 21
0.234861
 31
0.471764
 12
-3.096178
 22
0.374248
 32
0.665530
 13
-3.096178
 23
0.374248
 33
0.665530
 62
0
  0
3DFACE
  8
dolph02
 10
-2.949983
 20
0.498900
 30
0.874268
 11
-3.020020
 21
0.443868
 31
0.961109
 12
-3.178110
 22
0.374248
 32
0.830755
 13
-3.178110
 23
0.374248
 33
0.830755
 62
0
  0
3DFACE
  8
dolph02
 10
-3.066291
 20
0.396202
 30
0.582169
 11
-2.630337
 21
0.502656
 31
0.733640
 12
-2.949983
 22
0.498900
 32
0.874268
 13
-2.949983
 23
0.498900
 33
0.874268
 62
0
  0
3DFACE
  8
dolph02
 10
-2.949983
 20
0.498900
 30
0.874268
 11
-3.096178
 21
0.374248
 31
0.665530
 12
-3.066291
 22
0.396202
 32
0.582169
 13
-3.066291
 23
0.396202
 33
0.582169
 62
0
  0
3DFACE
  8
dolph02
 10
-3.514718
 20
0.201784
 30
0.678276
 11
-3.479981
 21
0.146753
 31
0.785834
 12
-3.579279
 22
0.073376
 32
0.698424
 13
-3.579279
 23
0.073376
 33
0.698424
 62
0
  0
3DFACE
  8
dolph02
 10
-2.915851
 20
0.443868
 30
1.107103
 11
-3.020020
 21
0.443868
 31
0.961109
 12
-2.870473
 22
0.502656
 32
0.945059
 13
-2.870473
 23
0.502656
 33
0.945059
 62
0
  0
3DFACE
  8
dolph02
 10
-2.830175
 20
0.498900
 30
1.074184
 11
-2.915851
 21
0.443868
 31
1.107103
 12
-2.870473
 22
0.502656
 32
0.945059
 13
-2.870473
 23
0.502656
 33
0.945059
 62
0
  0
3DFACE
  8
dolph02
 10
-2.720284
 20
0.517244
 30
1.112884
 11
-2.830175
 21
0.498900
 31
1.074184
 12
-2.870473
 22
0.502656
 32
0.945059
 13
-2.870473
 23
0.502656
 33
0.945059
 62
0
  0
3DFACE
  8
dolph02
 10
-2.645588
 20
0.557688
 30
0.904197
 11
-2.720284
 21
0.517244
 31
1.112884
 12
-2.870473
 22
0.502656
 32
0.945059
 13
-2.870473
 23
0.502656
 33
0.945059
 62
0
  0
3DFACE
  8
dolph02
 10
-2.949983
 20
0.498900
 30
0.874268
 11
-2.645588
 21
0.557688
 31
0.904197
 12
-2.870473
 22
0.502656
 32
0.945059
 13
-2.870473
 23
0.502656
 33
0.945059
 62
0
  0
3DFACE
  8
dolph02
 10
-3.020020
 20
0.443868
 30
0.961109
 11
-2.949983
 21
0.498900
 31
0.874268
 12
-2.870473
 22
0.502656
 32
0.945059
 13
-2.870473
 23
0.502656
 33
0.945059
 62
0
  0
3DFACE
  8
dolph02
 10
-3.377228
 20
0.234861
 30
0.471764
 11
-3.748872
 21
0.121042
 31
0.208129
 12
-3.697377
 22
0.157729
 32
0.163267
 13
-3.697377
 23
0.157729
 33
0.163267
 62
0
  0
3DFACE
  8
dolph02
 10
-3.697377
 20
0.157729
 30
0.163267
 11
-3.361425
 21
0.264183
 31
0.396822
 12
-3.377228
 22
0.234861
 32
0.471764
 13
-3.377228
 23
0.234861
 33
0.471764
 62
0
  0
3DFACE
  8
dolph02
 10
-3.096178
 20
0.374248
 30
0.665530
 11
-3.377228
 21
0.234861
 31
0.471764
 12
-3.361425
 22
0.264183
 32
0.396822
 13
-3.361425
 23
0.264183
 33
0.396822
 62
0
  0
3DFACE
  8
dolph02
 10
-3.361425
 20
0.264183
 30
0.396822
 11
-3.066291
 21
0.396202
 31
0.582169
 12
-3.096178
 22
0.374248
 32
0.665530
 13
-3.096178
 23
0.374248
 33
0.665530
 62
0
  0
3DFACE
  8
dolph02
 10
-2.808140
 20
0.458601
 30
0.674787
 11
-3.066291
 21
0.396202
 31
0.582169
 12
-3.033529
 22
0.245839
 32
0.266523
 13
-3.033529
 23
0.245839
 33
0.266523
 62
0
  0
3DFACE
  8
dolph02
 10
-3.033529
 20
0.245839
 30
0.266523
 11
-2.510428
 21
0.322826
 31
0.359155
 12
-2.808140
 22
0.458601
 32
0.674787
 13
-2.808140
 23
0.458601
 33
0.674787
 62
0
  0
3DFACE
  8
dolph02
 10
-2.630337
 20
0.502656
 30
0.733640
 11
-2.808140
 21
0.458601
 31
0.674787
 12
-2.510428
 22
0.322826
 32
0.359155
 13
-2.510428
 23
0.322826
 33
0.359155
 62
0
  0
3DFACE
  8
dolph02
 10
-3.358341
 20
0.249449
 30
0.344967
 11
-3.286785
 21
0.146753
 31
0.276408
 12
-3.033529
 22
0.245839
 32
0.266523
 13
-3.033529
 23
0.245839
 33
0.266523
 62
0
  0
3DFACE
  8
dolph02
 10
-3.033529
 20
0.245839
 30
0.266523
 11
-3.066291
 21
0.396202
 31
0.582169
 12
-3.358341
 22
0.249449
 32
0.344967
 13
-3.358341
 23
0.249449
 33
0.344967
 62
0
  0
3DFACE
  8
dolph02
 10
-2.061754
 20
0.506266
 30
0.487539
 11
-2.075380
 21
0.623697
 31
0.632305
 12
-2.630337
 22
0.502656
 32
0.733640
 13
-2.630337
 23
0.502656
 33
0.733640
 62
0
  0
3DFACE
  8
dolph02
 10
-2.630337
 20
0.502656
 30
0.733640
 11
-2.510428
 21
0.322826
 31
0.359155
 12
-2.061754
 22
0.506266
 32
0.487539
 13
-2.061754
 23
0.506266
 33
0.487539
 62
0
  0
3DFACE
  8
dolph02
 10
-1.995461
 20
0.711807
 30
1.063815
 11
-2.582183
 21
0.583398
 31
0.913712
 12
-2.630337
 22
0.502656
 32
0.733640
 13
-2.630337
 23
0.502656
 33
0.733640
 62
0
  0
3DFACE
  8
dolph02
 10
-2.630337
 20
0.502656
 30
0.733640
 11
-2.075380
 21
0.623697
 31
0.632305
 12
-1.995461
 22
0.711807
 32
1.063815
 13
-1.995461
 23
0.711807
 33
1.063815
 62
0
  0
3DFACE
  8
dolph02
 10
-2.582183
 20
0.583398
 30
0.913712
 11
-2.645588
 21
0.557688
 31
0.904197
 12
-2.630337
 22
0.502656
 32
0.733640
 13
-2.630337
 23
0.502656
 33
0.733640
 62
0
  0
3DFACE
  8
dolph02
 10
-2.487793
 20
0.579643
 30
1.163570
 11
-2.720284
 21
0.517244
 31
1.112884
 12
-2.645588
 22
0.557688
 32
0.904197
 13
-2.645588
 23
0.557688
 33
0.904197
 62
0
  0
3DFACE
  8
dolph02
 10
-2.645588
 20
0.557688
 30
0.904197
 11
-2.582183
 21
0.583398
 31
0.913712
 12
-2.487793
 22
0.579643
 32
1.163570
 13
-2.487793
 23
0.579643
 33
1.163570
 62
0
  0
3DFACE
  8
dolph02
 10
-2.557632
 20
0.473334
 30
1.430699
 11
-2.741250
 21
0.528367
 31
1.258260
 12
-2.720284
 22
0.517244
 32
1.112884
 13
-2.720284
 23
0.517244
 33
1.112884
 62
0
  0
3DFACE
  8
dolph02
 10
-2.720284
 20
0.517244
 30
1.112884
 11
-2.487793
 21
0.579643
 31
1.163570
 12
-2.557632
 22
0.473334
 32
1.430699
 13
-2.557632
 23
0.473334
 33
1.430699
 62
0
  0
3DFACE
  8
dolph02
 10
-2.457620
 20
0.528367
 30
1.348760
 11
-2.557632
 21
0.473334
 31
1.430699
 12
-2.487793
 22
0.579643
 32
1.163570
 13
-2.487793
 23
0.579643
 33
1.163570
 62
0
  0
3DFACE
  8
dolph02
 10
-1.995461
 20
0.711807
 30
1.063815
 11
-2.014711
 21
0.616332
 31
1.407761
 12
-2.487793
 22
0.579643
 32
1.163570
 13
-2.487793
 23
0.579643
 33
1.163570
 62
0
  0
3DFACE
  8
dolph02
 10
-2.487793
 20
0.579643
 30
1.163570
 11
-2.582183
 21
0.583398
 31
0.913712
 12
-1.995461
 22
0.711807
 32
1.063815
 13
-1.995461
 23
0.711807
 33
1.063815
 62
0
  0
3DFACE
  8
dolph02
 10
-1.407953
 20
0.737373
 30
1.132689
 11
-1.549743
 21
0.667752
 31
1.508992
 12
-2.014711
 22
0.616332
 32
1.407761
 13
-2.014711
 23
0.616332
 33
1.407761
 62
0
  0
3DFACE
  8
dolph02
 10
-2.014711
 20
0.616332
 30
1.407761
 11
-1.995461
 21
0.711807
 31
1.063815
 12
-1.407953
 22
0.737373
 32
1.132689
 13
-1.407953
 23
0.737373
 33
1.132689
 62
0
  0
3DFACE
  8
dolph02
 10
-0.768554
 20
0.737373
 30
1.087203
 11
-0.841930
 21
0.693463
 31
1.358752
 12
-1.549743
 22
0.667752
 32
1.508992
 13
-1.549743
 23
0.667752
 33
1.508992
 62
0
  0
3DFACE
  8
dolph02
 10
-1.549743
 20
0.667752
 30
1.508992
 11
-1.407953
 21
0.737373
 31
1.132689
 12
-0.768554
 22
0.737373
 32
1.087203
 13
-0.768554
 23
0.737373
 33
1.087203
 62
0
  0
3DFACE
  8
dolph02
 10
-0.119145
 20
0.708052
 30
1.090813
 11
-0.148467
 21
0.667752
 31
1.432127
 12
-0.841930
 22
0.693463
 32
1.358752
 13
-0.841930
 23
0.693463
 33
1.358752
 62
0
  0
3DFACE
  8
dolph02
 10
-0.841930
 20
0.693463
 30
1.358752
 11
-0.768554
 21
0.737373
 31
1.087203
 12
-0.119145
 22
0.708052
 32
1.090813
 13
-0.119145
 23
0.708052
 33
1.090813
 62
0
  0
3DFACE
  8
dolph02
 10
0.651303
 20
0.645653
 30
0.955183
 11
0.658671
 21
0.634675
 31
1.344019
 12
-0.148467
 22
0.667752
 32
1.432127
 13
-0.148467
 23
0.667752
 33
1.432127
 62
0
  0
3DFACE
  8
dolph02
 10
-0.148467
 20
0.667752
 30
1.432127
 11
-0.119145
 21
0.708052
 31
1.090813
 12
0.651303
 22
0.645653
 32
0.955183
 13
0.651303
 23
0.645653
 33
0.955183
 62
0
  0
3DFACE
  8
dolph02
 10
1.489652
 20
0.410935
 30
0.936933
 11
1.508366
 21
0.476945
 31
1.290917
 12
0.658671
 22
0.634675
 32
1.344019
 13
0.658671
 23
0.634675
 33
1.344019
 62
0
  0
3DFACE
  8
dolph02
 10
0.658671
 20
0.634675
 30
1.344019
 11
0.651303
 21
0.645653
 31
0.955183
 12
1.489652
 22
0.410935
 32
0.936933
 13
1.489652
 23
0.410935
 33
0.936933
 62
0
  0
3DFACE
  8
dolph02
 10
2.033510
 20
0.315460
 30
0.838347
 11
2.063890
 21
0.337559
 31
1.192844
 12
1.508366
 22
0.476945
 32
1.290917
 13
1.508366
 23
0.476945
 33
1.290917
 62
0
  0
3DFACE
  8
dolph02
 10
1.508366
 20
0.476945
 30
1.290917
 11
1.489652
 21
0.410935
 31
0.936933
 12
2.033510
 22
0.315460
 32
0.838347
 13
2.033510
 23
0.315460
 33
0.838347
 62
0
  0
3DFACE
  8
dolph02
 10
2.433396
 20
0.205396
 30
0.833844
 11
2.458041
 21
0.201784
 31
1.053202
 12
2.063890
 22
0.337559
 32
1.192844
 13
2.063890
 23
0.337559
 33
1.192844
 62
0
  0
3DFACE
  8
dolph02
 10
2.063890
 20
0.337559
 30
1.192844
 11
2.033510
 21
0.315460
 31
0.838347
 12
2.433396
 22
0.205396
 32
0.833844
 13
2.433396
 23
0.205396
 33
0.833844
 62
0
  0
3DFACE
  8
dolph02
 10
2.696008
 20
0.154119
 30
0.808293
 11
2.746918
 21
0.143141
 31
0.986763
 12
2.458041
 22
0.201784
 32
1.053202
 13
2.458041
 23
0.201784
 33
1.053202
 62
0
  0
3DFACE
  8
dolph02
 10
2.458041
 20
0.201784
 30
1.053202
 11
2.433396
 21
0.205396
 31
0.833844
 12
2.696008
 22
0.154119
 32
0.808293
 13
2.696008
 23
0.154119
 33
0.808293
 62
0
  0
3DFACE
  8
dolph02
 10
-2.457620
 20
0.528367
 30
1.348760
 11
-2.487793
 21
0.579643
 31
1.163570
 12
-2.014711
 22
0.616332
 32
1.407761
 13
-2.014711
 23
0.616332
 33
1.407761
 62
0
  0
3DFACE
  8
dolph02
 10
-2.111991
 20
0.432891
 30
1.655139
 11
-2.457620
 21
0.528367
 31
1.348760
 12
-2.014711
 22
0.616332
 32
1.407761
 13
-2.014711
 23
0.616332
 33
1.407761
 62
0
  0
3DFACE
  8
dolph02
 10
-2.557632
 20
0.473334
 30
1.430699
 11
-2.457620
 21
0.528367
 31
1.348760
 12
-2.111991
 22
0.432891
 32
1.655139
 13
-2.111991
 23
0.432891
 33
1.655139
 62
0
  0
3DFACE
  8
dolph02
 10
-1.549743
 20
0.667752
 30
1.508992
 11
-1.558352
 21
0.462213
 31
1.848429
 12
-2.111991
 22
0.432891
 32
1.655139
 13
-2.111991
 23
0.432891
 33
1.655139
 62
0
  0
3DFACE
  8
dolph02
 10
-2.111991
 20
0.432891
 30
1.655139
 11
-2.014711
 21
0.616332
 31
1.407761
 12
-1.549743
 22
0.667752
 32
1.508992
 13
-1.549743
 23
0.667752
 33
1.508992
 62
0
  0
3DFACE
  8
dolph02
 10
-0.841930
 20
0.693463
 30
1.358752
 11
-0.907939
 21
0.517244
 31
1.817353
 12
-1.558352
 22
0.462213
 32
1.848429
 13
-1.558352
 23
0.462213
 33
1.848429
 62
0
  0
3DFACE
  8
dolph02
 10
-1.558352
 20
0.462213
 30
1.848429
 11
-1.549743
 21
0.667752
 31
1.508992
 12
-0.841930
 22
0.693463
 32
1.358752
 13
-0.841930
 23
0.693463
 33
1.358752
 62
0
  0
3DFACE
  8
dolph02
 10
-0.148467
 20
0.667752
 30
1.432127
 11
-0.177790
 21
0.491678
 31
1.799010
 12
-0.907939
 22
0.517244
 32
1.817353
 13
-0.907939
 23
0.517244
 33
1.817353
 62
0
  0
3DFACE
  8
dolph02
 10
-0.907939
 20
0.517244
 30
1.817353
 11
-0.841930
 21
0.693463
 31
1.358752
 12
-0.148467
 22
0.667752
 32
1.432127
 13
-0.148467
 23
0.667752
 33
1.432127
 62
0
  0
3DFACE
  8
dolph02
 10
0.658671
 20
0.634675
 30
1.344019
 11
0.695358
 21
0.410935
 31
1.685189
 12
-0.177790
 22
0.491678
 32
1.799010
 13
-0.177790
 23
0.491678
 33
1.799010
 62
0
  0
3DFACE
  8
dolph02
 10
-0.177790
 20
0.491678
 30
1.799010
 11
-0.148467
 21
0.667752
 31
1.432127
 12
0.658671
 22
0.634675
 32
1.344019
 13
0.658671
 23
0.634675
 33
1.344019
 62
0
  0
3DFACE
  8
dolph02
 10
1.508366
 20
0.476945
 30
1.290917
 11
1.530652
 21
0.264183
 31
1.597945
 12
0.695358
 22
0.410935
 32
1.685189
 13
0.695358
 23
0.410935
 33
1.685189
 62
0
  0
3DFACE
  8
dolph02
 10
0.695358
 20
0.410935
 30
1.685189
 11
0.658671
 21
0.634675
 31
1.344019
 12
1.508366
 22
0.476945
 32
1.290917
 13
1.508366
 23
0.476945
 33
1.290917
 62
0
  0
3DFACE
  8
dolph02
 10
2.063890
 20
0.337559
 30
1.192844
 11
2.114522
 21
0.212762
 31
1.413597
 12
1.530652
 22
0.264183
 32
1.597945
 13
1.530652
 23
0.264183
 33
1.597945
 62
0
  0
3DFACE
  8
dolph02
 10
1.530652
 20
0.264183
 30
1.597945
 11
1.508366
 21
0.476945
 31
1.290917
 12
2.063890
 22
0.337559
 32
1.192844
 13
2.063890
 23
0.337559
 33
1.192844
 62
0
  0
3DFACE
  8
dolph02
 10
2.458041
 20
0.201784
 30
1.053202
 11
2.492853
 21
0.172462
 31
1.230714
 12
2.114522
 22
0.212762
 32
1.413597
 13
2.114522
 23
0.212762
 33
1.413597
 62
0
  0
3DFACE
  8
dolph02
 10
2.114522
 20
0.212762
 30
1.413597
 11
2.063890
 21
0.337559
 31
1.192844
 12
2.458041
 22
0.201784
 32
1.053202
 13
2.458041
 23
0.201784
 33
1.053202
 62
0
  0
3DFACE
  8
dolph02
 10
2.746918
 20
0.143141
 30
0.986763
 11
2.845411
 21
0.113676
 31
1.113487
 12
2.492853
 22
0.172462
 32
1.230714
 13
2.492853
 23
0.172462
 33
1.230714
 62
0
  0
3DFACE
  8
dolph02
 10
2.492853
 20
0.172462
 30
1.230714
 11
2.458041
 21
0.201784
 31
1.053202
 12
2.746918
 22
0.143141
 32
0.986763
 13
2.746918
 23
0.143141
 33
0.986763
 62
0
  0
3DFACE
  8
dolph02
 10
3.094381
 20
0.264183
 30
0.956690
 11
3.117374
 21
0.139385
 31
1.066242
 12
2.845411
 22
0.113676
 32
1.113487
 13
2.845411
 23
0.113676
 33
1.113487
 62
0
  0
3DFACE
  8
dolph02
 10
2.845411
 20
0.113676
 30
1.113487
 11
2.746918
 21
0.143141
 31
0.986763
 12
3.094381
 22
0.264183
 32
0.956690
 13
3.094381
 23
0.264183
 33
0.956690
 62
0
  0
3DFACE
  8
dolph02
 10
3.182287
 20
0.106453
 30
0.970882
 11
3.117374
 21
0.139385
 31
1.066242
 12
3.094381
 22
0.264183
 32
0.956690
 13
3.094381
 23
0.264183
 33
0.956690
 62
0
  0
3DFACE
  8
dolph02
 10
-1.509323
 20
0.594376
 30
0.666291
 11
-1.407953
 21
0.737373
 31
1.132689
 12
-1.995461
 22
0.711807
 32
1.063815
 13
-1.995461
 23
0.711807
 33
1.063815
 62
0
  0
3DFACE
  8
dolph02
 10
-1.995461
 20
0.711807
 30
1.063815
 11
-2.075380
 21
0.623697
 31
0.632305
 12
-1.509323
 22
0.594376
 32
0.666291
 13
-1.509323
 23
0.594376
 33
0.666291
 62
0
  0
3DFACE
  8
dolph02
 10
-0.746455
 20
0.542955
 30
0.595525
 11
-0.768554
 21
0.737373
 31
1.087203
 12
-1.407953
 22
0.737373
 32
1.132689
 13
-1.407953
 23
0.737373
 33
1.132689
 62
0
  0
3DFACE
  8
dolph02
 10
-1.407953
 20
0.737373
 30
1.132689
 11
-1.509323
 21
0.594376
 31
0.666291
 12
-0.746455
 22
0.542955
 32
0.595525
 13
-0.746455
 23
0.542955
 33
0.595525
 62
0
  0
3DFACE
  8
dolph02
 10
-0.199889
 20
0.550321
 30
0.624990
 11
-0.119145
 21
0.708052
 31
1.090813
 12
-0.768554
 22
0.737373
 32
1.087203
 13
-0.768554
 23
0.737373
 33
1.087203
 62
0
  0
3DFACE
  8
dolph02
 10
-0.768554
 20
0.737373
 30
1.087203
 11
-0.746455
 21
0.542955
 31
0.595525
 12
-0.199889
 22
0.550321
 32
0.624990
 13
-0.199889
 23
0.550321
 33
0.624990
 62
0
  0
3DFACE
  8
dolph02
 10
0.497185
 20
0.447623
 30
0.588302
 11
0.651303
 21
0.645653
 31
0.955183
 12
-0.119145
 22
0.708052
 32
1.090813
 13
-0.119145
 23
0.708052
 33
1.090813
 62
0
  0
3DFACE
  8
dolph02
 10
-0.119145
 20
0.708052
 30
1.090813
 11
-0.199889
 21
0.550321
 31
0.624990
 12
0.497185
 22
0.447623
 32
0.588302
 13
0.497185
 23
0.447623
 33
0.588302
 62
0
  0
3DFACE
  8
dolph02
 10
1.440729
 20
0.249449
 30
0.633347
 11
1.489652
 21
0.410935
 31
0.936933
 12
0.651303
 22
0.645653
 32
0.955183
 13
0.651303
 23
0.645653
 33
0.955183
 62
0
  0
3DFACE
  8
dolph02
 10
0.651303
 20
0.645653
 30
0.955183
 11
0.497185
 21
0.447623
 31
0.588302
 12
1.440729
 22
0.249449
 32
0.633347
 13
1.440729
 23
0.249449
 33
0.633347
 62
0
  0
3DFACE
  8
dolph02
 10
2.057514
 20
0.139385
 30
0.580160
 11
2.033510
 21
0.315460
 31
0.838347
 12
1.489652
 22
0.410935
 32
0.936933
 13
1.489652
 23
0.410935
 33
0.936933
 62
0
  0
3DFACE
  8
dolph02
 10
1.489652
 20
0.410935
 30
0.936933
 11
1.440729
 21
0.249449
 31
0.633347
 12
2.057514
 22
0.139385
 32
0.580160
 13
2.057514
 23
0.139385
 33
0.580160
 62
0
  0
3DFACE
  8
dolph02
 10
2.411182
 20
0.102698
 30
0.649631
 11
2.433396
 21
0.205396
 31
0.833844
 12
2.033510
 22
0.315460
 32
0.838347
 13
2.033510
 23
0.315460
 33
0.838347
 62
0
  0
3DFACE
  8
dolph02
 10
2.033510
 20
0.315460
 30
0.838347
 11
2.057514
 21
0.139385
 31
0.580160
 12
2.411182
 22
0.102698
 32
0.649631
 13
2.411182
 23
0.102698
 33
0.649631
 62
0
  0
3DFACE
  8
dolph02
 10
2.848660
 20
0.080742
 30
0.667260
 11
2.696008
 21
0.154119
 31
0.808293
 12
2.433396
 22
0.205396
 32
0.833844
 13
2.433396
 23
0.205396
 33
0.833844
 62
0
  0
3DFACE
  8
dolph02
 10
2.433396
 20
0.205396
 30
0.833844
 11
2.411182
 21
0.102698
 31
0.649631
 12
2.848660
 22
0.080742
 32
0.667260
 13
2.848660
 23
0.080742
 33
0.667260
 62
0
  0
3DFACE
  8
dolph02
 10
3.051574
 20
0.172462
 30
0.687838
 11
2.696008
 21
0.154119
 31
0.808293
 12
2.848660
 22
0.080742
 32
0.667260
 13
2.848660
 23
0.080742
 33
0.667260
 62
0
  0
3DFACE
  8
dolph02
 10
-1.713958
 20
1.030877
 30
0.415565
 11
-1.699679
 21
1.063954
 31
0.441479
 12
-2.075380
 22
0.623697
 32
0.632305
 13
-2.075380
 23
0.623697
 33
0.632305
 62
0
  0
3DFACE
  8
dolph02
 10
-2.075380
 20
0.623697
 30
0.632305
 11
-2.061754
 21
0.506266
 31
0.487539
 12
-1.713958
 22
1.030877
 32
0.415565
 13
-1.713958
 23
1.030877
 33
0.415565
 62
0
  0
3DFACE
  8
dolph02
 10
-1.368188
 20
0.931935
 30
0.530276
 11
-1.509323
 21
0.594376
 31
0.666291
 12
-2.075380
 22
0.623697
 32
0.632305
 13
-2.075380
 23
0.623697
 33
0.632305
 62
0
  0
3DFACE
  8
dolph02
 10
-2.075380
 20
0.623697
 30
0.632305
 11
-1.699679
 21
1.063954
 31
0.441479
 12
-1.368188
 22
0.931935
 32
0.530276
 13
-1.368188
 23
0.931935
 33
0.530276
 62
0
  0
3DFACE
  8
dolph02
 10
-1.046417
 20
1.115375
 30
0.366792
 11
-1.368188
 21
0.931935
 31
0.530276
 12
-1.699679
 22
1.063954
 32
0.441479
 13
-1.699679
 23
1.063954
 33
0.441479
 62
0
  0
3DFACE
  8
dolph02
 10
-1.699679
 20
1.063954
 30
0.441479
 11
-1.543904
 21
1.155674
 31
0.391692
 12
-1.046417
 22
1.115375
 32
0.366792
 13
-1.046417
 23
1.115375
 33
0.366792
 62
0
  0
3DFACE
  8
dolph02
 10
-1.254445
 20
1.166652
 30
0.351507
 11
-1.046417
 21
1.115375
 31
0.366792
 12
-1.543904
 22
1.155674
 32
0.391692
 13
-1.543904
 23
1.155674
 33
0.391692
 62
0
  0
3DFACE
  8
dolph02
 10
-1.491598
 20
0.000000
 30
0.436539
 11
-0.797876
 21
0.000000
 31
0.404862
 12
-0.746455
 22
0.542955
 32
0.595525
 13
-0.746455
 23
0.542955
 33
0.595525
 62
0
  0
3DFACE
  8
dolph02
 10
-0.746455
 20
0.542955
 30
0.595525
 11
-1.509323
 21
0.594376
 31
0.666291
 12
-1.491598
 22
0.000000
 32
0.436539
 13
-1.491598
 23
0.000000
 33
0.436539
 62
0
  0
3DFACE
  8
dolph02
 10
1.513324
 20
0.000000
 30
0.591898
 11
1.440729
 21
0.249449
 31
0.633347
 12
0.497185
 22
0.447623
 32
0.588302
 13
0.497185
 23
0.447623
 33
0.588302
 62
0
  0
3DFACE
  8
dolph02
 10
0.497185
 20
0.447623
 30
0.588302
 11
0.464252
 21
0.000000
 31
0.430429
 12
1.513324
 22
0.000000
 32
0.591898
 13
1.513324
 23
0.000000
 33
0.591898
 62
0
  0
3DFACE
  8
dolph02
 10
2.867586
 20
0.000000
 30
0.643766
 11
2.848660
 21
0.080742
 31
0.667260
 12
2.411182
 22
0.102698
 32
0.649631
 13
2.411182
 23
0.102698
 33
0.649631
 62
0
  0
3DFACE
  8
dolph02
 10
2.411182
 20
0.102698
 30
0.649631
 11
2.387870
 21
0.000000
 31
0.589101
 12
2.867586
 22
0.000000
 32
0.643766
 13
2.867586
 23
0.000000
 33
0.643766
 62
0
  0
3DFACE
  8
dolph02
 10
-1.938238
 20
0.000000
 30
0.377991
 11
-2.061754
 21
0.506266
 31
0.487539
 12
-2.510428
 22
0.322826
 32
0.359155
 13
-2.510428
 23
0.322826
 33
0.359155
 62
0
  0
3DFACE
  8
dolph02
 10
-2.510428
 20
0.322826
 30
0.359155
 11
-2.447683
 21
0.000000
 31
0.317127
 12
-1.938238
 22
0.000000
 32
0.377991
 13
-1.938238
 23
0.000000
 33
0.377991
 62
0
  0
3DFACE
  8
dolph02
 10
-1.491598
 20
0.000000
 30
0.436539
 11
-1.509323
 21
0.594376
 31
0.666291
 12
-2.061754
 22
0.506266
 32
0.487539
 13
-2.061754
 23
0.506266
 33
0.487539
 62
0
  0
3DFACE
  8
dolph02
 10
-2.061754
 20
0.506266
 30
0.487539
 11
-1.938238
 21
0.000000
 31
0.377991
 12
-1.491598
 22
0.000000
 32
0.436539
 13
-1.491598
 23
0.000000
 33
0.436539
 62
0
  0
3DFACE
  8
dolph02
 10
-2.447683
 20
0.000000
 30
0.317127
 11
-2.510428
 21
0.322826
 31
0.359155
 12
-3.033529
 22
0.245839
 32
0.266523
 13
-3.033529
 23
0.245839
 33
0.266523
 62
0
  0
3DFACE
  8
dolph02
 10
-3.033529
 20
0.245839
 30
0.266523
 11
-2.923593
 21
0.000000
 31
0.216807
 12
-2.447683
 22
0.000000
 32
0.317127
 13
-2.447683
 23
0.000000
 33
0.317127
 62
0
  0
3DFACE
  8
dolph02
 10
-2.923593
 20
0.000000
 30
0.216807
 11
-3.033529
 21
0.245839
 31
0.266523
 12
-3.286785
 22
0.146753
 32
0.276408
 13
-3.286785
 23
0.146753
 33
0.276408
 62
0
  0
3DFACE
  8
dolph02
 10
-3.286785
 20
0.146753
 30
0.276408
 11
-3.248909
 21
0.000000
 31
0.243837
 12
-2.923593
 22
0.000000
 32
0.216807
 13
-2.923593
 23
0.000000
 33
0.216807
 62
0
  0
3DFACE
  8
dolph02
 10
-3.248909
 20
0.000000
 30
0.243837
 11
-3.286785
 21
0.146753
 31
0.276408
 12
-3.664451
 22
0.113676
 32
0.116470
 13
-3.664451
 23
0.113676
 33
0.116470
 62
0
  0
3DFACE
  8
dolph02
 10
-3.664451
 20
0.113676
 30
0.116470
 11
-3.622211
 21
0.000000
 31
0.094553
 12
-3.248909
 22
0.000000
 32
0.243837
 13
-3.248909
 23
0.000000
 33
0.243837
 62
0
  0
3DFACE
  8
dolph02
 10
-3.286785
 20
0.146753
 30
0.276408
 11
-3.358341
 21
0.249449
 31
0.344967
 12
-3.664451
 22
0.113676
 32
0.116470
 13
-3.664451
 23
0.113676
 33
0.116470
 62
0
  0
3DFACE
  8
dolph02
 10
-3.664451
 20
0.113676
 30
0.116470
 11
-3.866862
 21
0.066009
 31
0.030092
 12
-3.902408
 22
0.000000
 32
0.000000
 13
-3.902408
 23
0.000000
 33
0.000000
 62
0
  0
3DFACE
  8
dolph02
 10
-3.902408
 20
0.000000
 30
0.000000
 11
-3.622211
 21
0.000000
 31
0.094553
 12
-3.664451
 22
0.113676
 32
0.116470
 13
-3.664451
 23
0.113676
 33
0.116470
 62
0
  0
3DFACE
  8
dolph02
 10
3.864916
 20
0.913591
 30
0.666968
 11
3.477261
 21
1.056589
 31
0.624121
 12
4.000000
 22
1.251005
 32
0.627905
 13
4.000000
 23
1.251005
 33
0.627905
 62
0
  0
3DFACE
  8
dolph02
 10
3.417171
 20
0.000000
 30
0.870433
 11
3.182287
 21
0.106453
 31
0.970882
 12
3.300796
 22
0.238473
 32
0.872694
 13
3.300796
 23
0.238473
 33
0.872694
 62
0
  0
3DFACE
  8
dolph02
 10
3.300796
 20
0.238473
 30
0.872694
 11
3.535598
 21
0.139385
 31
0.823975
 12
3.417171
 22
0.000000
 32
0.870433
 13
3.417171
 23
0.000000
 33
0.870433
 62
0
  0
3DFACE
  8
dolph02
 10
3.566255
 20
0.000000
 30
0.819774
 11
3.417171
 21
0.000000
 31
0.870433
 12
3.535598
 22
0.139385
 32
0.823975
 13
3.535598
 23
0.139385
 33
0.823975
 62
0
  0
3DFACE
  8
dolph02
 10
3.535598
 20
0.139385
 30
0.823975
 11
3.697720
 21
0.084354
 31
0.815966
 12
3.566255
 22
0.000000
 32
0.819774
 13
3.566255
 23
0.000000
 33
0.819774
 62
0
  0
3DFACE
  8
dolph02
 10
2.696008
 20
0.154119
 30
0.808293
 11
3.104820
 21
0.348537
 31
0.912976
 12
3.094381
 22
0.264183
 32
0.956690
 13
3.094381
 23
0.264183
 33
0.956690
 62
0
  0
3DFACE
  8
dolph02
 10
3.094381
 20
0.264183
 30
0.956690
 11
2.746918
 21
0.143141
 31
0.986763
 12
2.696008
 22
0.154119
 32
0.808293
 13
2.696008
 23
0.154119
 33
0.808293
 62
0
  0
3DFACE
  8
dolph02
 10
3.051574
 20
0.172462
 30
0.687838
 11
3.104820
 21
0.348537
 31
0.912976
 12
2.696008
 22
0.154119
 32
0.808293
 13
2.696008
 23
0.154119
 33
0.808293
 62
0
  0
3DFACE
  8
dolph02
 10
-3.983537
 20
0.058643
 30
0.220237
 11
-3.909453
 21
0.106453
 31
0.269302
 12
-3.514718
 22
0.201784
 32
0.678276
 13
-3.514718
 23
0.201784
 33
0.678276
 62
0
  0
3DFACE
  8
dolph02
 10
-3.514718
 20
0.201784
 30
0.678276
 11
-3.579279
 21
0.073376
 31
0.698424
 12
-3.983537
 22
0.058643
 32
0.220237
 13
-3.983537
 23
0.058643
 33
0.220237
 62
0
  0
3DFACE
  8
dolph02
 10
-4.000000
 20
0.000000
 30
0.243634
 11
-3.960393
 21
0.000000
 31
0.144684
 12
-3.953350
 22
0.055033
 32
0.140475
 13
-3.953350
 23
0.055033
 33
0.140475
 62
0
  0
3DFACE
  8
dolph02
 10
-3.953350
 20
0.055033
 30
0.140475
 11
-3.983537
 21
0.058643
 31
0.220237
 12
-4.000000
 22
0.000000
 32
0.243634
 13
-4.000000
 23
0.000000
 33
0.243634
 62
0
  0
3DFACE
  8
dolph02
 10
-3.839069
 20
0.106453
 30
0.230262
 11
-3.909453
 21
0.106453
 31
0.269302
 12
-3.983537
 22
0.058643
 32
0.220237
 13
-3.983537
 23
0.058643
 33
0.220237
 62
0
  0
3DFACE
  8
dolph02
 10
-3.983537
 20
0.058643
 30
0.220237
 11
-3.953350
 21
0.055033
 31
0.140475
 12
-3.839069
 22
0.106453
 32
0.230262
 13
-3.839069
 23
0.106453
 33
0.230262
 62
0
  0
3DFACE
  8
dolph02
 10
-3.066291
 20
0.396202
 30
0.582169
 11
-3.361425
 21
0.264183
 31
0.396822
 12
-3.358341
 22
0.249449
 32
0.344967
 13
-3.358341
 23
0.249449
 33
0.344967
 62
0
  0
3DFACE
  8
dolph02
 10
-3.361425
 20
0.264183
 30
0.396822
 11
-3.697377
 21
0.157729
 31
0.163267
 12
-3.664451
 22
0.113676
 32
0.116470
 13
-3.664451
 23
0.113676
 33
0.116470
 62
0
  0
3DFACE
  8
dolph02
 10
-3.664451
 20
0.113676
 30
0.116470
 11
-3.358341
 21
0.249449
 31
0.344967
 12
-3.361425
 22
0.264183
 32
0.396822
 13
-3.361425
 23
0.264183
 33
0.396822
 62
0
  0
3DFACE
  8
dolph02
 10
-3.664451
 20
0.113676
 30
0.116470
 11
-3.697377
 21
0.157729
 31
0.163267
 12
-3.866862
 22
0.066009
 32
0.030092
 13
-3.866862
 23
0.066009
 33
0.030092
 62
0
  0
3DFACE
  8
dolph02
 10
-3.748872
 20
0.121042
 30
0.208129
 11
-3.933805
 21
0.069764
 31
0.065222
 12
-3.866862
 22
0.066009
 32
0.030092
 13
-3.866862
 23
0.066009
 33
0.030092
 62
0
  0
3DFACE
  8
dolph02
 10
-3.866862
 20
0.066009
 30
0.030092
 11
-3.697377
 21
0.157729
 31
0.163267
 12
-3.748872
 22
0.121042
 32
0.208129
 13
-3.748872
 23
0.121042
 33
0.208129
 62
0
  0
3DFACE
  8
dolph02
 10
-3.839069
 20
0.106453
 30
0.230262
 11
-3.953350
 21
0.055033
 31
0.140475
 12
-3.933805
 22
0.069764
 32
0.065222
 13
-3.933805
 23
0.069764
 33
0.065222
 62
0
  0
3DFACE
  8
dolph02
 10
-3.933805
 20
0.069764
 30
0.065222
 11
-3.748872
 21
0.121042
 31
0.208129
 12
-3.839069
 22
0.106453
 32
0.230262
 13
-3.839069
 23
0.106453
 33
0.230262
 62
0
  0
3DFACE
  8
dolph02
 10
-3.960347
 20
0.000000
 30
0.056267
 11
-3.902408
 21
0.000000
 31
0.000000
 12
-3.866862
 22
0.066009
 32
0.030092
 13
-3.866862
 23
0.066009
 33
0.030092
 62
0
  0
3DFACE
  8
dolph02
 10
-3.866862
 20
0.066009
 30
0.030092
 11
-3.933805
 21
0.069764
 31
0.065222
 12
-3.960347
 22
0.000000
 32
0.056267
 13
-3.960347
 23
0.000000
 33
0.056267
 62
0
  0
3DFACE
  8
dolph02
 10
-3.933805
 20
0.069764
 30
0.065222
 11
-3.953350
 21
0.055033
 31
0.140475
 12
-3.960393
 22
0.000000
 32
0.144684
 13
-3.960393
 23
0.000000
 33
0.144684
 62
0
  0
3DFACE
  8
dolph02
 10
-3.960393
 20
0.000000
 30
0.144684
 11
-3.960347
 21
0.000000
 31
0.056267
 12
-3.933805
 22
0.069764
 32
0.065222
 13
-3.933805
 23
0.069764
 33
0.065222
 62
0
  0
3DFACE
  8
dolph02
 10
-2.872304
 20
0.447623
 30
1.188129
 11
-3.003870
 21
0.396202
 31
1.199061
 12
-2.915851
 22
0.443868
 32
1.107103
 13
-2.915851
 23
0.443868
 33
1.107103
 62
1
  0
3DFACE
  8
dolph02
 10
-2.830175
 20
0.498900
 30
1.074184
 11
-2.720284
 21
0.517244
 31
1.112884
 12
-2.872304
 22
0.447623
 32
1.188129
 13
-2.872304
 23
0.447623
 33
1.188129
 62
1
  0
3DFACE
  8
dolph02
 10
-2.630337
 20
0.502656
 30
0.733640
 11
-2.645588
 21
0.557688
 31
0.904197
 12
-2.949983
 22
0.498900
 32
0.874268
 13
-2.949983
 23
0.498900
 33
0.874268
 62
0
  0
3DFACE
  8
dolph02
 10
-3.514718
 20
0.201784
 30
0.678276
 11
-3.219236
 21
0.381614
 31
0.911425
 12
-3.258283
 22
0.300872
 32
0.973515
 13
-3.258283
 23
0.300872
 33
0.973515
 62
0
  0
3DFACE
  8
dolph02
 10
-2.915851
 20
0.443868
 30
1.107103
 11
-2.830175
 21
0.498900
 31
1.074184
 12
-2.872304
 22
0.447623
 32
1.188129
 13
-2.872304
 23
0.447623
 33
1.188129
 62
1
  0
3DFACE
  8
dolph02
 10
-1.543904
 20
1.155674
 30
0.391692
 11
-1.540056
 21
1.129963
 31
0.364686
 12
-1.252366
 22
1.144697
 32
0.339240
 13
-1.252366
 23
1.144697
 33
0.339240
 62
0
  0
3DFACE
  8
dolph02
 10
-1.252366
 20
1.144697
 30
0.339240
 11
-1.254445
 21
1.166652
 31
0.351507
 12
-1.543904
 22
1.155674
 32
0.391692
 13
-1.543904
 23
1.155674
 33
0.391692
 62
0
  0
3DFACE
  8
dolph02
 10
-1.540056
 20
1.129963
 30
0.364686
 11
-1.543904
 21
1.155674
 31
0.391692
 12
-1.699679
 22
1.063954
 32
0.441479
 13
-1.699679
 23
1.063954
 33
0.441479
 62
0
  0
3DFACE
  8
dolph02
 10
-1.699679
 20
1.063954
 30
0.441479
 11
-1.713958
 21
1.030877
 31
0.415565
 12
-1.540056
 22
1.129963
 32
0.364686
 13
-1.540056
 23
1.129963
 33
0.364686
 62
0
  0
3DFACE
  8
dolph02
 10
-1.046417
 20
1.115375
 30
0.366792
 11
-1.254445
 21
1.166652
 31
0.351507
 12
-1.252366
 22
1.144697
 32
0.339240
 13
-1.252366
 23
1.144697
 33
0.339240
 62
0
  0
3DFACE
  8
dolph02
 10
-1.509323
 20
0.594376
 30
0.666291
 11
-1.368188
 21
0.931935
 31
0.530276
 12
-1.713958
 22
1.030877
 32
0.415565
 13
-1.713958
 23
1.030877
 33
0.415565
 62
0
  0
3DFACE
  8
dolph02
 10
-1.713958
 20
1.030877
 30
0.415565
 11
-2.061754
 21
0.506266
 31
0.487539
 12
-1.509323
 22
0.594376
 32
0.666291
 13
-1.509323
 23
0.594376
 33
0.666291
 62
0
  0
3DFACE
  8
dolph02
 10
-1.046417
 20
1.115375
 30
0.366792
 11
-1.252366
 21
1.144697
 31
0.339240
 12
-1.540056
 22
1.129963
 32
0.364686
 13
-1.540056
 23
1.129963
 33
0.364686
 62
0
  0
3DFACE
  8
dolph02
 10
-1.540056
 20
1.129963
 30
0.364686
 11
-1.713958
 21
1.030877
 31
0.415565
 12
-1.046417
 22
1.115375
 32
0.366792
 13
-1.046417
 23
1.115375
 33
0.366792
 62
0
  0
3DFACE
  8
dolph02
 10
-1.368188
 20
0.931935
 30
0.530276
 11
-1.046417
 21
1.115375
 31
0.366792
 12
-1.713958
 22
1.030877
 32
0.415565
 13
-1.713958
 23
1.030877
 33
0.415565
 62
0
  0
3DFACE
  8
dolph02
 10
0.555973
 20
0.143141
 30
2.151157
 11
0.548605
 21
0.000000
 31
2.411584
 12
0.200068
 22
0.088110
 32
2.573070
 13
0.200068
 23
0.088110
 33
2.573070
 62
0
  0
3DFACE
  8
dolph02
 10
0.200068
 20
0.088110
 30
2.573070
 11
-0.016449
 21
0.168707
 31
2.264831
 12
0.555973
 22
0.143141
 32
2.151157
 13
0.555973
 23
0.143141
 33
2.151157
 62
0
  0
3DFACE
  8
dolph02
 10
0.200068
 20
0.088110
 30
2.573070
 11
0.548605
 21
0.000000
 31
2.411584
 12
0.684380
 22
0.000000
 32
2.712456
 13
0.684380
 23
0.000000
 33
2.712456
 62
0
  0
3DFACE
  8
dolph02
 10
0.684380
 20
0.000000
 30
2.712456
 11
0.354189
 21
0.051421
 31
2.741777
 12
0.200068
 22
0.088110
 32
2.573070
 13
0.200068
 23
0.088110
 33
2.573070
 62
0
  0
3DFACE
  8
dolph02
 10
0.684380
 20
0.000000
 30
2.712456
 11
0.853087
 21
0.000000
 31
2.881308
 12
0.809034
 22
0.000000
 32
2.998594
 13
0.809034
 23
0.000000
 33
2.998594
 62
0
  0
3DFACE
  8
dolph02
 10
0.809034
 20
0.000000
 30
2.998594
 11
0.574316
 21
0.018344
 31
3.005960
 12
0.684380
 22
0.000000
 32
2.712456
 13
0.684380
 23
0.000000
 33
2.712456
 62
0
  0
3DFACE
  8
dolph02
 10
0.354189
 20
0.051421
 30
2.741777
 11
0.684380
 21
0.000000
 31
2.712456
 12
0.574316
 22
0.018344
 32
3.005960
 13
0.574316
 23
0.018344
 33
3.005960
 62
0
  0
3DFACE
  8
dolph02
 10
0.464252
 20
0.000000
 30
0.430429
 11
0.497185
 21
0.447623
 31
0.588302
 12
-0.199889
 22
0.550321
 32
0.624990
 13
-0.199889
 23
0.550321
 33
0.624990
 62
0
  0
3DFACE
  8
dolph02
 10
-0.199889
 20
0.550321
 30
0.624990
 11
-0.174178
 21
0.000000
 31
0.456140
 12
0.464252
 22
0.000000
 32
0.430429
 13
0.464252
 23
0.000000
 33
0.430429
 62
0
  0
3DFACE
  8
dolph02
 10
-0.797876
 20
0.000000
 30
0.404862
 11
-0.174178
 21
0.000000
 31
0.456140
 12
-0.199889
 22
0.550321
 32
0.624990
 13
-0.199889
 23
0.550321
 33
0.624990
 62
0
  0
3DFACE
  8
dolph02
 10
-0.199889
 20
0.550321
 30
0.624990
 11
-0.746455
 21
0.542955
 31
0.595525
 12
-0.797876
 22
0.000000
 32
0.404862
 13
-0.797876
 23
0.000000
 33
0.404862
 62
0
  0
3DFACE
  8
dolph02
 10
2.020607
 20
0.000000
 30
0.548163
 11
2.387870
 21
0.000000
 31
0.589101
 12
2.411182
 22
0.102698
 32
0.649631
 13
2.411182
 23
0.102698
 33
0.649631
 62
0
  0
3DFACE
  8
dolph02
 10
2.411182
 20
0.102698
 30
0.649631
 11
2.057514
 21
0.139385
 31
0.580160
 12
2.020607
 22
0.000000
 32
0.548163
 13
2.020607
 23
0.000000
 33
0.548163
 62
0
  0
3DFACE
  8
dolph02
 10
1.440729
 20
0.249449
 30
0.633347
 11
1.513324
 21
0.000000
 31
0.591898
 12
2.020607
 22
0.000000
 32
0.548163
 13
2.020607
 23
0.000000
 33
0.548163
 62
0
  0
3DFACE
  8
dolph02
 10
2.020607
 20
0.000000
 30
0.548163
 11
2.057514
 21
0.139385
 31
0.580160
 12
1.440729
 22
0.249449
 32
0.633347
 13
1.440729
 23
0.249449
 33
0.633347
 62
0
  0
3DFACE
  8
dolph02
 10
3.051574
 20
0.172462
 30
0.687838
 11
2.848660
 21
0.080742
 31
0.667260
 12
2.867586
 22
0.000000
 32
0.643766
 13
2.867586
 23
0.000000
 33
0.643766
 62
0
  0
3DFACE
  8
dolph02
 10
2.867586
 20
0.000000
 30
0.643766
 11
3.084008
 21
0.000000
 31
0.666461
 12
3.051574
 22
0.172462
 32
0.687838
 13
3.051574
 23
0.172462
 33
0.687838
 62
0
  0
3DFACE
  8
dolph02
 10
3.231511
 20
0.755717
 30
0.717809
 11
3.233691
 21
0.755717
 31
0.654370
 12
3.480078
 22
1.056589
 32
0.586947
 13
3.480078
 23
1.056589
 33
0.586947
 62
0
  0
3DFACE
  8
dolph02
 10
3.480078
 20
1.056589
 30
0.586947
 11
3.477261
 21
1.056589
 31
0.624121
 12
3.231511
 22
0.755717
 32
0.717809
 13
3.231511
 23
0.755717
 33
0.717809
 62
0
  0
3DFACE
  8
dolph02
 10
3.233691
 20
0.755717
 30
0.654370
 11
3.231511
 21
0.755717
 31
0.717809
 12
3.104820
 22
0.348537
 32
0.912976
 13
3.104820
 23
0.348537
 33
0.912976
 62
0
  0
3DFACE
  8
dolph02
 10
3.104820
 20
0.348537
 30
0.912976
 11
3.051574
 21
0.172462
 31
0.687838
 12
3.233691
 22
0.755717
 32
0.654370
 13
3.233691
 23
0.755717
 33
0.654370
 62
0
  0
3DFACE
  8
dolph02
 10
4.000000
 20
1.251005
 30
0.627905
 11
3.477261
 21
1.056589
 31
0.624121
 12
3.480078
 22
1.056589
 32
0.586947
 13
3.480078
 23
1.056589
 33
0.586947
 62
0
  0
3DFACE
  8
dolph02
 10
3.182287
 20
0.106453
 30
0.970882
 11
3.417171
 21
0.000000
 31
0.870433
 12
3.267614
 22
0.000000
 32
0.984461
 13
3.267614
 23
0.000000
 33
0.984461
 62
0
  0
3DFACE
  8
dolph02
 10
3.051574
 20
0.172462
 30
0.687838
 11
3.084008
 21
0.000000
 31
0.666461
 12
3.566255
 22
0.000000
 32
0.819774
 13
3.566255
 23
0.000000
 33
0.819774
 62
0
  0
3DFACE
  8
dolph02
 10
3.566255
 20
0.000000
 30
0.819774
 11
3.697720
 21
0.084354
 31
0.815966
 12
3.772200
 22
0.311849
 32
0.742648
 13
3.772200
 23
0.311849
 33
0.742648
 62
0
  0
3DFACE
  8
dolph02
 10
3.772200
 20
0.311849
 30
0.742648
 11
3.233691
 21
0.755717
 31
0.654370
 12
3.566255
 22
0.000000
 32
0.819774
 13
3.566255
 23
0.000000
 33
0.819774
 62
0
  0
3DFACE
  8
dolph02
 10
3.051574
 20
0.172462
 30
0.687838
 11
3.566255
 21
0.000000
 31
0.819774
 12
3.233691
 22
0.755717
 32
0.654370
 13
3.233691
 23
0.755717
 33
0.654370
 62
0
  0
3DFACE
  8
dolph02
 10
3.233691
 20
0.755717
 30
0.654370
 11
3.772200
 21
0.311849
 31
0.742648
 12
3.864916
 22
0.913591
 32
0.666968
 13
3.864916
 23
0.913591
 33
0.666968
 62
0
  0
3DFACE
  8
dolph02
 10
3.864916
 20
0.913591
 30
0.666968
 11
3.480078
 21
1.056589
 31
0.586947
 12
3.233691
 22
0.755717
 32
0.654370
 13
3.233691
 23
0.755717
 33
0.654370
 62
0
  0
3DFACE
  8
dolph02
 10
3.480078
 20
1.056589
 30
0.586947
 11
3.864916
 21
0.913591
 31
0.666968
 12
4.000000
 22
1.251005
 32
0.627905
 13
4.000000
 23
1.251005
 33
0.627905
 62
0
  0
3DFACE
  8
dolph02
 10
3.231511
 20
0.755717
 30
0.717809
 11
3.477261
 21
1.056589
 31
0.624121
 12
3.864916
 22
0.913591
 32
0.666968
 13
3.864916
 23
0.913591
 33
0.666968
 62
0
  0
3DFACE
  8
dolph02
 10
3.864916
 20
0.913591
 30
0.666968
 11
3.772200
 21
0.311849
 31
0.742648
 12
3.231511
 22
0.755717
 32
0.717809
 13
3.231511
 23
0.755717
 33
0.717809
 62
0
  0
3DFACE
  8
dolph02
 10
3.231511
 20
0.755717
 30
0.717809
 11
3.772200
 21
0.311849
 31
0.742648
 12
3.697720
 22
0.084354
 32
0.815966
 13
3.697720
 23
0.084354
 33
0.815966
 62
0
  0
3DFACE
  8
dolph02
 10
3.697720
 20
0.084354
 30
0.815966
 11
3.535598
 21
0.139385
 31
0.823975
 12
3.231511
 22
0.755717
 32
0.717809
 13
3.231511
 23
0.755717
 33
0.717809
 62
0
  0
3DFACE
  8
dolph02
 10
3.231511
 20
0.755717
 30
0.717809
 11
3.535598
 21
0.139385
 31
0.823975
 12
3.300796
 22
0.238473
 32
0.872694
 13
3.300796
 23
0.238473
 33
0.872694
 62
0
  0
3DFACE
  8
dolph02
 10
3.231511
 20
0.755717
 30
0.717809
 11
3.300796
 21
0.238473
 31
0.872694
 12
3.104820
 22
0.348537
 32
0.912976
 13
3.104820
 23
0.348537
 33
0.912976
 62
0
  0
3DFACE
  8
dolph02
 10
3.104820
 20
0.348537
 30
0.912976
 11
3.300796
 21
0.238473
 31
0.872694
 12
3.182287
 22
0.106453
 32
0.970882
 13
3.182287
 23
0.106453
 33
0.970882
 62
0
  0
3DFACE
  8
dolph02
 10
3.182287
 20
0.106453
 30
0.970882
 11
3.094381
 21
0.264183
 31
0.956690
 12
3.104820
 22
0.348537
 32
0.912976
 13
3.104820
 23
0.348537
 33
0.912976
 62
0
  0
3DFACE
  8
dolph02
 10
-2.682962
 20
0.000000
 30
1.650985
 11
-2.732893
 21
0.000000
 31
1.625710
 12
-2.758110
 22
0.076987
 32
1.587368
 13
-2.758110
 23
0.076987
 33
1.587368
 62
0
  0
3DFACE
  8
dolph02
 10
-3.075267
 20
0.000000
 30
1.403851
 11
-3.137704
 21
0.201784
 31
1.317002
 12
-2.758110
 22
0.076987
 32
1.587368
 13
-2.758110
 23
0.076987
 33
1.587368
 62
0
  0
3DFACE
  8
dolph02
 10
-2.758110
 20
0.076987
 30
1.587368
 11
-2.732893
 21
0.000000
 31
1.625710
 12
-3.075267
 22
0.000000
 32
1.403851
 13
-3.075267
 23
0.000000
 33
1.403851
 62
0
  0
3DFACE
  8
dolph02
 10
-3.137704
 20
0.201784
 30
1.317002
 11
-2.746011
 21
0.201784
 31
1.556795
 12
-2.758110
 22
0.076987
 32
1.587368
 13
-2.758110
 23
0.076987
 33
1.587368
 62
0
  0
3DFACE
  8
dolph02
 10
-3.178110
 20
0.374248
 30
0.830755
 11
-3.096178
 21
0.374248
 31
0.665530
 12
-2.949983
 22
0.498900
 32
0.874268
 13
-2.949983
 23
0.498900
 33
0.874268
 62
0
  0
3DFACE
  8
dolph02
 10
-2.949983
 20
-0.498900
 30
0.874268
 11
-3.096178
 21
-0.374248
 31
0.665530
 12
-3.178110
 22
-0.374248
 32
0.830755
 13
-3.178110
 23
-0.374248
 33
0.830755
 62
0
 0
ENDSEC
 0
EOF
